<?xml version="1.0" encoding="UTF-8" standalone="no"?> <svg width="64" height="64" viewBox="0 0 64 64" fill="none" xmlns="http://www.w3.org/2000/svg">
<path d="M10 54C10.2652 54 10.5196 53.8947 10.7071 53.7071C10.8946 53.5196 11 53.2652 11 53V50C11.2652 50.0012 11.52 49.897 11.7084 49.7103C11.8968 49.5236 12.0033 49.2697 12.0045 49.0045C12.0057 48.7393 11.9015 48.4845 11.7148 48.2961C11.5281 48.1077 11.2742 48.0012 11.009 48C11.0356 47.0112 11.3535 46.0522 11.9227 45.2431C12.4919 44.4341 13.2872 43.8111 14.209 43.452C14.3316 43.4048 14.4437 43.3339 14.5389 43.2434C14.6341 43.1529 14.7105 43.0445 14.7638 42.9244C14.8171 42.8043 14.8462 42.6749 14.8495 42.5436C14.8528 42.4123 14.8302 42.2816 14.783 42.159C14.7358 42.0364 14.6649 41.9243 14.5744 41.8292C14.4838 41.734 14.3754 41.6575 14.2554 41.6042C14.1353 41.5509 14.0059 41.5218 13.8746 41.5185C13.7433 41.5152 13.6126 41.5378 13.49 41.585C12.1719 42.0978 11.0388 42.9955 10.2379 44.1612C9.43712 45.3269 9.00576 46.7067 9 48.121V53C9 53.2652 9.10536 53.5196 9.29289 53.7071C9.48043 53.8947 9.73478 54 10 54Z" fill="#d3d3d3"/>
<path d="M17.282 22.733C17.311 22.6049 17.3145 22.4723 17.2923 22.3429C17.2701 22.2134 17.2226 22.0896 17.1526 21.9785C17.0825 21.8674 16.9912 21.7712 16.884 21.6953C16.7767 21.6195 16.6556 21.5655 16.5275 21.5365C16.3994 21.5075 16.2668 21.504 16.1374 21.5262C16.0079 21.5484 15.8841 21.5959 15.773 21.666C15.6619 21.736 15.5657 21.8273 15.4898 21.9345C15.414 22.0418 15.36 22.1629 15.331 22.291C15.268 22.57 15.197 22.849 15.112 23.146C15.0406 23.4116 15.003 23.685 15 23.96C15.0008 24.766 15.3213 25.5388 15.8913 26.1087C16.4612 26.6787 17.234 26.9992 18.04 27H19C18.911 27.823 18.809 28.646 18.683 29.466C18.446 30.9744 18.6 32.5184 19.1304 33.9503C19.6607 35.3821 20.5496 36.6539 21.712 37.644C21.2592 38.3253 20.6062 38.8494 19.843 39.144L17.07 40.209C16.8224 40.3044 16.6229 40.4941 16.5152 40.7366C16.4076 40.9791 16.4007 41.2544 16.496 41.502C16.5913 41.7496 16.7811 41.9492 17.0236 42.0568C17.2661 42.1644 17.5414 42.1714 17.789 42.076L20.564 41.008C21.6386 40.595 22.5696 39.8777 23.243 38.944C24.849 40.2711 26.8667 40.998 28.95 41H35.05C37.1743 40.9985 39.2292 40.2442 40.85 38.871C41.6027 39.8345 42.6321 40.5446 43.8 40.906L49.475 42.652C50.4983 42.964 51.3939 43.5974 52.0288 44.4584C52.6638 45.3195 53.0044 46.3622 53 47.432V53C53 53.2652 53.1054 53.5196 53.2929 53.7071C53.4804 53.8947 53.7348 54 54 54C54.2652 54 54.5196 53.8947 54.7071 53.7071C54.8946 53.5196 55 53.2652 55 53V47.432C55.0059 45.9336 54.5283 44.4732 53.6381 43.2678C52.748 42.0624 51.4928 41.1763 50.059 40.741L44.384 38.995C43.5782 38.742 42.8737 38.2395 42.372 37.56C43.506 36.5691 44.3705 35.3071 44.8849 33.8917C45.3994 32.4764 45.547 30.9538 45.314 29.466C45.2987 29.3325 45.2567 29.2034 45.1904 29.0864C45.1241 28.9695 45.0349 28.8671 44.9282 28.7854C44.8214 28.7037 44.6993 28.6444 44.5691 28.611C44.4389 28.5776 44.3033 28.5708 44.1704 28.5909C44.0375 28.6111 43.91 28.6579 43.7956 28.7284C43.6812 28.799 43.5822 28.8919 43.5045 29.0016C43.4268 29.1113 43.372 29.2355 43.3434 29.3668C43.3148 29.4982 43.3129 29.6339 43.338 29.766C43.5221 30.9384 43.4023 32.1385 42.9899 33.2513C42.5776 34.3642 41.8866 35.3526 40.983 36.122L39.59 37.322C38.3252 38.4049 36.715 39 35.05 39H28.95C27.2849 38.9997 25.6747 38.4042 24.41 37.321L23.018 36.121C22.1141 35.3518 21.4228 34.3635 21.0102 33.2506C20.5977 32.1377 20.4778 30.9375 20.662 29.765C21.558 23.9527 21.558 18.0373 20.662 12.225L20.389 10.447C20.2999 9.86719 20.3828 9.27398 20.6274 8.74077C20.8719 8.20757 21.2675 7.75776 21.765 7.44701L25.828 4.90701C26.7819 4.31218 27.8839 3.99786 29.008 4.00001H34.992C36.1166 3.99936 37.2187 4.31542 38.172 4.91201L39.385 5.67001C39.6104 5.81057 39.8825 5.85583 40.1413 5.79581C40.4001 5.7358 40.6244 5.57544 40.765 5.35001C40.9056 5.12457 40.9508 4.85253 40.8908 4.59373C40.8308 4.33493 40.6704 4.11057 40.445 3.97001L39.232 3.21201C37.9605 2.41801 36.4911 1.99799 34.992 2.00001H29.008C27.5085 1.99919 26.0391 2.42061 24.768 3.21601L20.7 5.75601C19.8704 6.27354 19.2111 7.02321 18.8036 7.91203C18.3962 8.80086 18.2586 9.78973 18.408 10.756L18.45 11H18.04C17.5699 11.0008 17.1064 11.1106 16.6858 11.3206C16.2652 11.5306 15.899 11.8353 15.6159 12.2106C15.3328 12.5859 15.1405 13.0217 15.0542 13.4838C14.9678 13.9459 14.9896 14.4218 15.118 14.874C15.5027 16.2156 15.6985 17.6043 15.7 19C15.7 19.2652 15.8054 19.5196 15.9929 19.7071C16.1804 19.8947 16.4348 20 16.7 20C16.9652 20 17.2196 19.8947 17.4071 19.7071C17.5946 19.5196 17.7 19.2652 17.7 19C17.6983 17.419 17.4769 15.846 17.042 14.326C16.9984 14.1712 16.9911 14.0085 17.0208 13.8504C17.0505 13.6924 17.1163 13.5434 17.2131 13.415C17.31 13.2866 17.4351 13.1823 17.5789 13.1104C17.7227 13.0384 17.8812 13.0006 18.042 13H18.75C19.3285 16.9725 19.475 20.996 19.187 25H18.04C17.7653 24.9964 17.5029 24.8856 17.3086 24.6914C17.1144 24.4971 17.0036 24.2347 17 23.96C17.002 23.8633 17.0161 23.7672 17.042 23.674C17.1313 23.362 17.2113 23.0483 17.282 22.733Z" fill="#d3d3d3"/>
<path d="M30.016 9.32596H30C29.9927 9.3255 29.9853 9.3255 29.978 9.32596C27.5413 9.45166 25.1226 9.81403 22.756 10.408C22.626 10.4375 22.5033 10.4927 22.395 10.5703C22.2867 10.648 22.195 10.7465 22.1253 10.8601C22.0556 10.9737 22.0093 11.1 21.9891 11.2318C21.9689 11.3635 21.9753 11.4979 22.0078 11.6272C22.0404 11.7564 22.0984 11.8778 22.1785 11.9843C22.2586 12.0908 22.3592 12.1802 22.4744 12.2473C22.5896 12.3143 22.717 12.3577 22.8491 12.3748C22.9813 12.3919 23.1156 12.3825 23.244 12.347C25.1338 11.8767 27.0589 11.562 29 11.406V16H26C25.7348 16 25.4804 15.8946 25.2929 15.7071C25.1054 15.5195 25 15.2652 25 15C25 14.7347 24.8946 14.4804 24.7071 14.2929C24.5196 14.1053 24.2652 14 24 14C23.7348 14 23.4804 14.1053 23.2929 14.2929C23.1054 14.4804 23 14.7347 23 15C23 15.7956 23.3161 16.5587 23.8787 17.1213C24.4413 17.6839 25.2044 18 26 18H29V18.512C28.9942 21.2076 28.1204 23.8297 26.508 25.99L26.2 26.4C26.1078 26.5228 26.0452 26.6652 26.0169 26.8161C25.9886 26.9671 25.9955 27.1225 26.037 27.2704C26.0785 27.4183 26.1534 27.5546 26.2561 27.6688C26.3588 27.783 26.4864 27.872 26.629 27.929C30.0759 29.3129 33.9241 29.3129 37.371 27.929C37.5136 27.872 37.6412 27.783 37.7439 27.6688C37.8466 27.5546 37.9215 27.4183 37.963 27.2704C38.0045 27.1225 38.0114 26.9671 37.9831 26.8161C37.9548 26.6652 37.8922 26.5228 37.8 26.4L37.492 25.99C35.8796 23.8297 35.0058 21.2076 35 18.512V14.323C35 14.0577 34.8946 13.8034 34.7071 13.6159C34.5196 13.4283 34.2652 13.323 34 13.323C33.7348 13.323 33.4804 13.4283 33.2929 13.6159C33.1054 13.8034 33 14.0577 33 14.323V18.512C33.0066 21.3485 33.8407 24.1215 35.4 26.491C33.1777 27.125 30.8223 27.125 28.6 26.491C30.1593 24.1215 30.9934 21.3485 31 18.512V11.3C34.2849 11.2022 37.5676 11.5565 40.756 12.353C40.8361 12.3732 40.9184 12.3833 41.001 12.383C41.2443 12.382 41.4789 12.2923 41.6609 12.1308C41.8428 11.9693 41.9596 11.7469 41.9894 11.5055C42.0192 11.264 41.96 11.0199 41.8228 10.819C41.6855 10.6181 41.4798 10.4741 41.244 10.414C37.5766 9.49322 33.792 9.1265 30.016 9.32596V9.32596Z" fill="#d3d3d3"/>
<path d="M39 33.981C39.2413 33.981 39.4745 33.8937 39.6565 33.7353C39.8386 33.5768 39.9572 33.3579 39.9904 33.1188C40.0237 32.8798 39.9694 32.6368 39.8375 32.4347C39.7057 32.2325 39.5052 32.0849 39.273 32.019C34.519 30.659 29.479 30.659 24.725 32.019C24.5963 32.0528 24.4756 32.1119 24.37 32.193C24.2644 32.274 24.1761 32.3753 24.1101 32.4909C24.0442 32.6065 24.002 32.7341 23.986 32.8662C23.97 32.9984 23.9806 33.1323 24.0171 33.2603C24.0535 33.3883 24.1152 33.5078 24.1984 33.6116C24.2817 33.7155 24.3848 33.8017 24.5018 33.8652C24.6187 33.9286 24.7472 33.9681 24.8796 33.9813C25.0121 33.9945 25.1458 33.9812 25.273 33.942C29.6689 32.685 34.3291 32.685 38.725 33.942C38.8144 33.9677 38.907 33.9809 39 33.981Z" fill="#d3d3d3"/>
<path d="M39.962 45.764C39.889 45.5091 39.7178 45.2938 39.486 45.1651C39.2542 45.0365 38.9809 45.0051 38.726 45.078C34.33 46.334 29.67 46.334 25.274 45.078C25.1462 45.0363 25.0112 45.0208 24.8772 45.0325C24.7433 45.0441 24.613 45.0827 24.4943 45.1458C24.3756 45.209 24.2708 45.2955 24.1863 45.4C24.1018 45.5046 24.0392 45.6252 24.0023 45.7545C23.9654 45.8838 23.955 46.0192 23.9717 46.1527C23.9884 46.2861 24.0318 46.4148 24.0994 46.5311C24.1669 46.6474 24.2572 46.7488 24.3649 46.8294C24.4726 46.9099 24.5954 46.968 24.726 47C29.4798 48.3613 34.5202 48.3613 39.274 47C39.4004 46.964 39.5184 46.9035 39.6213 46.8219C39.7243 46.7403 39.8102 46.6393 39.8741 46.5245C39.938 46.4097 39.9786 46.2835 39.9937 46.153C40.0088 46.0225 39.998 45.8903 39.962 45.764V45.764Z" fill="#d3d3d3"/>
<path d="M29 35C28.7348 35 28.4804 35.1054 28.2929 35.2929C28.1054 35.4804 28 35.7348 28 36C28 36.2652 28.1054 36.5196 28.2929 36.7071C28.4804 36.8946 28.7348 37 29 37H35C35.2652 37 35.5196 36.8946 35.7071 36.7071C35.8946 36.5196 36 36.2652 36 36C36 35.7348 35.8946 35.4804 35.7071 35.2929C35.5196 35.1054 35.2652 35 35 35H29Z" fill="#d3d3d3"/>
<path d="M18 51V53C18 53.2652 18.1054 53.5196 18.2929 53.7071C18.4804 53.8946 18.7348 54 19 54C19.2652 54 19.5196 53.8946 19.7071 53.7071C19.8946 53.5196 20 53.2652 20 53V51C20 50.7348 19.8946 50.4804 19.7071 50.2929C19.5196 50.1054 19.2652 50 19 50C18.7348 50 18.4804 50.1054 18.2929 50.2929C18.1054 50.4804 18 50.7348 18 51Z" fill="#d3d3d3"/>
<path d="M44 51V53C44 53.2652 44.1054 53.5196 44.2929 53.7071C44.4804 53.8946 44.7348 54 45 54C45.2652 54 45.5196 53.8946 45.7071 53.7071C45.8946 53.5196 46 53.2652 46 53V51C46 50.7348 45.8946 50.4804 45.7071 50.2929C45.5196 50.1054 45.2652 50 45 50C44.7348 50 44.4804 50.1054 44.2929 50.2929C44.1054 50.4804 44 50.7348 44 51Z" fill="#d3d3d3"/>
<path d="M49 51C49.5523 51 50 50.5523 50 50C50 49.4477 49.5523 49 49 49C48.4477 49 48 49.4477 48 50C48 50.5523 48.4477 51 49 51Z" fill="#d3d3d3"/>
<path d="M50 47C50.5523 47 51 46.5523 51 46C51 45.4477 50.5523 45 50 45C49.4477 45 49 45.4477 49 46C49 46.5523 49.4477 47 50 47Z" fill="#d3d3d3"/>
<path d="M45 46C45.5523 46 46 45.5523 46 45C46 44.4477 45.5523 44 45 44C44.4477 44 44 44.4477 44 45C44 45.5523 44.4477 46 45 46Z" fill="#d3d3d3"/>
<path d="M14.563 54C15.1153 54 15.563 53.5523 15.563 53C15.563 52.4477 15.1153 52 14.563 52C14.0107 52 13.563 52.4477 13.563 53C13.563 53.5523 14.0107 54 14.563 54Z" fill="#d3d3d3"/>
<path d="M16 47C16.5523 47 17 46.5523 17 46C17 45.4477 16.5523 45 16 45C15.4477 45 15 45.4477 15 46C15 46.5523 15.4477 47 16 47Z" fill="#d3d3d3"/>
<path d="M30 57.0001C29.7348 57.0001 29.4804 56.8947 29.2929 56.7072C29.1054 56.5196 29 56.2653 29 56.0001C29 55.8023 28.9413 55.609 28.8314 55.4446C28.7215 55.2802 28.5654 55.152 28.3827 55.0764C28.2 55.0007 27.9989 54.9809 27.805 55.0195C27.611 55.058 27.4329 55.1532 27.293 55.2931L25.649 56.9371C25.4583 56.8656 25.2939 56.7375 25.1779 56.5701C25.062 56.4026 24.9999 56.2037 25 56.0001C25 55.8023 24.9413 55.609 24.8314 55.4446C24.7215 55.2802 24.5654 55.152 24.3827 55.0764C24.2 55.0007 23.9989 54.9809 23.805 55.0195C23.611 55.058 23.4329 55.1532 23.293 55.2931L21.649 56.9371C21.4583 56.8656 21.2939 56.7375 21.1779 56.5701C21.062 56.4026 20.9999 56.2037 21 56.0001C21 55.8023 20.9413 55.609 20.8314 55.4446C20.7215 55.2802 20.5654 55.152 20.3827 55.0764C20.2 55.0007 19.9989 54.9809 19.805 55.0195C19.611 55.058 19.4329 55.1532 19.293 55.2931L17.649 56.9371C17.4583 56.8656 17.2939 56.7375 17.1779 56.5701C17.062 56.4026 16.9999 56.2037 17 56.0001C17 55.8023 16.9413 55.609 16.8314 55.4446C16.7215 55.2802 16.5654 55.152 16.3827 55.0764C16.2 55.0007 15.9989 54.9809 15.805 55.0195C15.611 55.058 15.4329 55.1532 15.293 55.2931L13.649 56.9371C13.4583 56.8656 13.2939 56.7375 13.1779 56.5701C13.062 56.4026 12.9999 56.2037 13 56.0001C13 55.8023 12.9413 55.609 12.8314 55.4446C12.7215 55.2802 12.5654 55.152 12.3827 55.0764C12.2 55.0007 11.9989 54.9809 11.805 55.0195C11.611 55.058 11.4329 55.1532 11.293 55.2931L9.649 56.9371C9.45827 56.8656 9.29391 56.7375 9.17793 56.5701C9.06195 56.4026 8.99987 56.2037 9 56.0001C8.99996 55.8023 8.94129 55.609 8.8314 55.4446C8.72152 55.2802 8.56535 55.152 8.38265 55.0764C8.19995 55.0007 7.99892 54.9809 7.80497 55.0195C7.61101 55.058 7.43285 55.1532 7.293 55.2931L5.649 56.9371C5.45827 56.8656 5.29391 56.7375 5.17793 56.5701C5.06195 56.4026 4.99987 56.2037 5 56.0001C5.00015 55.8022 4.94163 55.6088 4.83182 55.4442C4.72201 55.2797 4.56586 55.1514 4.38312 55.0756C4.20038 54.9998 3.99926 54.9799 3.80521 55.0184C3.61117 55.057 3.43291 55.1522 3.293 55.2921C2.8817 55.7011 2.55564 56.1876 2.33369 56.7235C2.11174 57.2594 1.99832 57.834 2 58.4141C2 58.6793 2.10536 58.9336 2.29289 59.1212C2.48043 59.3087 2.73478 59.4141 3 59.4141C3.26522 59.4141 3.51957 59.3087 3.70711 59.1212C3.89464 58.9336 4 58.6793 4 58.4141C4 58.3547 4.002 58.2967 4.006 58.2401C4.55456 58.73 5.26448 59.0006 6 59.0001C6.26519 59 6.51951 58.8946 6.707 58.7071L7.607 57.8071C7.88646 58.1774 8.24801 58.4779 8.66323 58.6849C9.07846 58.8919 9.53604 58.9998 10 59.0001C10.2652 59 10.5195 58.8946 10.707 58.7071L11.607 57.8071C11.8865 58.1774 12.248 58.4779 12.6632 58.6849C13.0785 58.8919 13.536 58.9998 14 59.0001C14.2652 59 14.5195 58.8946 14.707 58.7071L15.607 57.8071C15.8865 58.1774 16.248 58.4779 16.6632 58.6849C17.0785 58.8919 17.536 58.9998 18 59.0001C18.2652 59 18.5195 58.8946 18.707 58.7071L19.607 57.8071C19.8865 58.1774 20.248 58.4779 20.6632 58.6849C21.0785 58.8919 21.536 58.9998 22 59.0001C22.2652 59 22.5195 58.8946 22.707 58.7071L23.607 57.8071C23.8865 58.1774 24.248 58.4779 24.6632 58.6849C25.0785 58.8919 25.536 58.9998 26 59.0001C26.2652 59 26.5195 58.8946 26.707 58.7071L27.607 57.8071C27.8865 58.1774 28.248 58.4779 28.6632 58.6849C29.0785 58.8919 29.536 58.9998 30 59.0001C30.2652 59.0001 30.5196 58.8947 30.7071 58.7072C30.8946 58.5196 31 58.2653 31 58.0001C31 57.7348 30.8946 57.4805 30.7071 57.2929C30.5196 57.1054 30.2652 57.0001 30 57.0001Z" fill="#ec5242"/>
<path d="M61.5 56.858C61.3483 56.7719 61.2222 56.6471 61.1344 56.4964C61.0465 56.3457 61.0002 56.1745 61 56C61 55.8023 60.9413 55.609 60.8314 55.4446C60.7215 55.2802 60.5654 55.152 60.3827 55.0764C60.2 55.0007 59.9989 54.9809 59.805 55.0194C59.611 55.058 59.4328 55.1532 59.293 55.293L57.649 56.937C57.4583 56.8655 57.2939 56.7375 57.1779 56.5701C57.0619 56.4026 56.9999 56.2037 57 56C57 55.8023 56.9413 55.609 56.8314 55.4446C56.7215 55.2802 56.5654 55.152 56.3827 55.0764C56.2 55.0007 55.9989 54.9809 55.805 55.0194C55.611 55.058 55.4328 55.1532 55.293 55.293L53.649 56.937C53.4583 56.8655 53.2939 56.7375 53.1779 56.5701C53.0619 56.4026 52.9999 56.2037 53 56C53 55.8023 52.9413 55.609 52.8314 55.4446C52.7215 55.2802 52.5654 55.152 52.3827 55.0764C52.2 55.0007 51.9989 54.9809 51.805 55.0194C51.611 55.058 51.4328 55.1532 51.293 55.293L49.649 56.937C49.4583 56.8655 49.2939 56.7375 49.1779 56.5701C49.0619 56.4026 48.9999 56.2037 49 56C49 55.8023 48.9413 55.609 48.8314 55.4446C48.7215 55.2802 48.5654 55.152 48.3827 55.0764C48.2 55.0007 47.9989 54.9809 47.805 55.0194C47.611 55.058 47.4328 55.1532 47.293 55.293L45.649 56.937C45.4583 56.8655 45.2939 56.7375 45.1779 56.5701C45.0619 56.4026 44.9999 56.2037 45 56C45 55.8023 44.9413 55.609 44.8314 55.4446C44.7215 55.2802 44.5654 55.152 44.3827 55.0764C44.2 55.0007 43.9989 54.9809 43.805 55.0194C43.611 55.058 43.4328 55.1532 43.293 55.293L41.649 56.937C41.4583 56.8655 41.2939 56.7375 41.1779 56.5701C41.0619 56.4026 40.9999 56.2037 41 56C41 55.8023 40.9413 55.609 40.8314 55.4446C40.7215 55.2802 40.5654 55.152 40.3827 55.0764C40.2 55.0007 39.9989 54.9809 39.805 55.0194C39.611 55.058 39.4328 55.1532 39.293 55.293L37.649 56.937C37.4583 56.8655 37.2939 56.7375 37.1779 56.5701C37.0619 56.4026 36.9999 56.2037 37 56C37 55.8023 36.9413 55.609 36.8314 55.4446C36.7215 55.2802 36.5654 55.152 36.3827 55.0764C36.2 55.0007 35.9989 54.9809 35.805 55.0194C35.611 55.058 35.4328 55.1532 35.293 55.293L33.293 57.293C33.1108 57.4816 33.01 57.7342 33.0123 57.9964C33.0146 58.2586 33.1198 58.5094 33.3052 58.6949C33.4906 58.8803 33.7414 58.9854 34.0036 58.9877C34.2658 58.99 34.5184 58.8892 34.707 58.707L35.607 57.807C35.8865 58.1774 36.248 58.4779 36.6632 58.6849C37.0785 58.8919 37.536 58.9998 38 59C38.2652 59 38.5195 58.8946 38.707 58.707L39.607 57.807C39.8865 58.1774 40.248 58.4779 40.6632 58.6849C41.0785 58.8919 41.536 58.9998 42 59C42.2652 59 42.5195 58.8946 42.707 58.707L43.607 57.807C43.8865 58.1774 44.248 58.4779 44.6632 58.6849C45.0785 58.8919 45.536 58.9998 46 59C46.2652 59 46.5195 58.8946 46.707 58.707L47.607 57.807C47.8865 58.1774 48.248 58.4779 48.6632 58.6849C49.0785 58.8919 49.536 58.9998 50 59C50.2652 59 50.5195 58.8946 50.707 58.707L51.607 57.807C51.8865 58.1774 52.248 58.4779 52.6632 58.6849C53.0785 58.8919 53.536 58.9998 54 59C54.2652 59 54.5195 58.8946 54.707 58.707L55.607 57.807C55.8865 58.1774 56.248 58.4779 56.6632 58.6849C57.0785 58.8919 57.536 58.9998 58 59C58.2652 59 58.5195 58.8946 58.707 58.707L59.607 57.807C59.8478 58.1242 60.1489 58.3906 60.493 58.591C60.7228 58.7246 60.9963 58.7613 61.2532 58.6933C61.5101 58.6252 61.7295 58.4578 61.863 58.228C61.9965 57.9982 62.0333 57.7248 61.9652 57.4679C61.8972 57.2109 61.7298 56.9916 61.5 56.858V56.858Z" fill="#ec5242"/>
<path d="M42.235 7.45101C42.7325 7.76177 43.1281 8.21157 43.3726 8.74478C43.6172 9.27799 43.7001 9.87119 43.611 10.451L43.338 12.229C43.145 13.48 43.003 14.738 42.893 15.999H40C39.7348 15.999 39.4804 15.8937 39.2929 15.7061C39.1054 15.5186 39 15.2642 39 14.999C39 14.7338 38.8946 14.4794 38.7071 14.2919C38.5196 14.1044 38.2652 13.999 38 13.999C37.7348 13.999 37.4804 14.1044 37.2929 14.2919C37.1054 14.4794 37 14.7338 37 14.999C37 15.7947 37.3161 16.5577 37.8787 17.1203C38.4413 17.6829 39.2044 17.999 40 17.999H42.769C42.6205 20.6946 42.6616 23.3972 42.892 26.087C42.9164 26.3373 43.0332 26.5695 43.2195 26.7383C43.4059 26.9072 43.6485 27.0004 43.9 27H45.96C46.766 26.9992 47.5388 26.6787 48.1087 26.1087C48.6787 25.5388 48.9992 24.766 49 23.96C48.9966 23.6781 48.9569 23.3978 48.882 23.126C48.106 20.4301 48.106 17.5699 48.882 14.874C49.0104 14.4218 49.0322 13.9459 48.9458 13.4838C48.8595 13.0217 48.6672 12.5859 48.3841 12.2106C48.101 11.8353 47.7348 11.5306 47.3142 11.3206C46.8936 11.1106 46.4301 11.0008 45.96 11H45.551L45.588 10.756C45.7374 9.78973 45.5998 8.80086 45.1924 7.91204C44.7849 7.02322 44.1256 6.27355 43.296 5.75601C43.1847 5.68356 43.0601 5.63401 42.9294 5.61025C42.7987 5.58649 42.6646 5.589 42.5349 5.61762C42.4052 5.64625 42.2826 5.70043 42.174 5.77699C42.0655 5.85355 41.9733 5.95096 41.9029 6.06353C41.8324 6.17611 41.7851 6.30159 41.7636 6.43266C41.7422 6.56373 41.747 6.69776 41.778 6.82692C41.8089 6.95609 41.8652 7.0778 41.9437 7.18495C42.0222 7.2921 42.1212 7.38255 42.235 7.45101V7.45101ZM45.245 13H45.96C46.1208 13.0006 46.2793 13.0384 46.4231 13.1104C46.5669 13.1824 46.692 13.2866 46.7889 13.415C46.8857 13.5434 46.9515 13.6924 46.9812 13.8504C47.0109 14.0085 47.0036 14.1712 46.96 14.326C46.0847 17.3731 46.0826 20.6048 46.954 23.653C46.9824 23.753 46.9979 23.8561 47 23.96C46.9964 24.2347 46.8856 24.4971 46.6914 24.6914C46.4971 24.8857 46.2347 24.9964 45.96 25H44.811C44.5227 20.9961 44.6682 16.9727 45.245 13V13Z" fill="#d3d3d3"/>
</svg>
