<?xml version="1.0" encoding="UTF-8" standalone="no"?> <svg xmlns="http://www.w3.org/2000/svg" viewBox="0 0 64 64"><defs><style>.cls-1{fill:#005336;}.cls-2{fill:#6f6f6f;}.cls-3{fill:#d3d3d3;}.cls-4{fill:#00763a;}.cls-5{fill:#664442;}</style></defs><g id="filled_colour" data-name="filled colour"><path class="cls-1" d="M20.07,29.6a59.73,59.73,0,0,0-12.76-.35l-2.4.19,2.36,3.32A43.55,43.55,0,0,0,21.5,45.48c.36.2.72.4,1.09.59Z"/><path class="cls-1" d="M22.11,45.22l-.61.26A59.7,59.7,0,0,0,4.75,56.61L3,58.26l3.92,1.11a43.56,43.56,0,0,0,37-6.37Z"/><path class="cls-2" d="M40,21c7.45,0,11.47,2,12,2.85-.51.87-4.53,2.84-12,2.84s-11.47-2-12-2.84C28.53,23,32.55,21,40,21Z"/><path class="cls-3" d="M56,23.85c0,4.7-8.29,6.84-16,6.84s-16-2.14-16-6.84a4,4,0,0,1,1.11-2.74C27.61,18.3,34,17,40,17s12.39,1.3,14.89,4.11A4,4,0,0,1,56,23.85Zm-4,0C51.47,23,47.45,21,40,21s-11.47,2-12,2.85c.51.87,4.53,2.84,12,2.84S51.47,24.72,52,23.85Z"/><path class="cls-3" d="M56.3,22.56A19.88,19.88,0,0,1,60.45,31a16.08,16.08,0,0,1-3.57-.77,7,7,0,0,1-10.94,4.43,7,7,0,0,1-11.88,0,7,7,0,0,1-10.94-4.43,14.4,14.4,0,0,1-3.38.71,19.88,19.88,0,0,1,4.2-8.69L25,21l.11.11A4,4,0,0,0,24,23.85c0,4.7,8.29,6.84,16,6.84s16-2.14,16-6.84a4,4,0,0,0-1.11-2.74L55,21Z"/><path class="cls-4" d="M60.45,31a19.87,19.87,0,0,1-2,13.88l-.36.65A14.35,14.35,0,0,1,45.51,53H34.88A14.36,14.36,0,0,1,22,45.06,19.89,19.89,0,0,1,19.74,31a14.4,14.4,0,0,0,3.38-.71,7,7,0,0,0,10.94,4.43,7,7,0,0,0,11.88,0,7,7,0,0,0,10.94-4.43A16.08,16.08,0,0,0,60.45,31Z"/><polygon class="cls-5" points="32 3 26 13 22 9 32 3"/><polygon class="cls-5" points="32 14 26 13 32 3 32 13 32 14"/><polygon class="cls-5" points="32 3 38 13 32 14 32 13 32 3"/><polygon class="cls-5" points="42 9 38 13 32 3 42 9"/><path d="M50.05,3.7,46,16.44A41.24,41.24,0,0,0,40,16a40.23,40.23,0,0,0-7,.61V14.85L38.16,14a1,1,0,0,0,.54-.29h0l4-4A1,1,0,0,0,43,8.88a1,1,0,0,0-.48-.74l-10-6a1,1,0,0,0-1,0l-10,6a1,1,0,0,0-.48.74,1,1,0,0,0,.28.83l4,4h0a1,1,0,0,0,.54.29l5.16.86V17c-2.77.7-5.21,1.8-6.63,3.4l0,0-.12-.1-1.06,1.28a21,21,0,0,0-3.8,6.88,60.78,60.78,0,0,0-12.14-.27l-2.4.19A1,1,0,0,0,4,29a1,1,0,0,0,.1,1l2.36,3.32a44.8,44.8,0,0,0,12.91,12A60.87,60.87,0,0,0,4.06,55.88L2.31,57.53a1,1,0,0,0-.28,1,1,1,0,0,0,.7.72l3.92,1.11A44.68,44.68,0,0,0,18.79,62a44.34,44.34,0,0,0,25.4-8h1.32A15.32,15.32,0,0,0,59,46l.37-.65a20.92,20.92,0,0,0,2.1-14.57,21.15,21.15,0,0,0-4.36-8.9l-1.3-1.56-.12.1v0c-1.61-1.8-4.47-3-7.66-3.64L51.73,5H62V3H51A1,1,0,0,0,50.05,3.7ZM33,12.82V6.61l3.39,5.64Zm5.2-1.43L34.92,5.92,40.39,9.2ZM29.08,5.92,25.8,11.39,23.61,9.2ZM31,6.61v6.21l-3.39-.57ZM40,18a39.59,39.59,0,0,1,5.38.36l-.61,1.93A37.94,37.94,0,0,0,40,20a34.38,34.38,0,0,0-7,.66v-2A36.79,36.79,0,0,1,40,18Zm3.09,7.56c-.94.08-2,.13-3.09.13A31.14,31.14,0,0,1,33,25V22.71A31.14,31.14,0,0,1,40,22a35.94,35.94,0,0,1,4.15.23Zm3.06-3a16.3,16.3,0,0,1,4.19,1.31,17,17,0,0,1-5.07,1.47ZM31,24.41a9.89,9.89,0,0,1-1.34-.56A12,12,0,0,1,31,23.28ZM8.08,32.18,6.75,30.3l.64-.05a58.28,58.28,0,0,1,11.44.22c0,.1,0,.2-.07.29a21.26,21.26,0,0,0-.39,3.29l-6.59-2.73L11,33.16l7.34,3.05a20.84,20.84,0,0,0,1.76,7.28A42.71,42.71,0,0,1,8.08,32.18ZM7.19,58.41,5,57.78l.47-.44a58.44,58.44,0,0,1,16-10.74l.42.23a15.18,15.18,0,0,0,3.57,4L9.54,55.42l.56,1.92,17.57-5.12A15.39,15.39,0,0,0,34.88,54h5.6A42.35,42.35,0,0,1,7.19,58.41Zm50.39-14-.37.66A13.33,13.33,0,0,1,45.51,52H34.88a13.33,13.33,0,0,1-12-7.44A19,19,0,0,1,20.32,35a18.69,18.69,0,0,1,.29-3.17c.71-.1,1.31-.2,1.81-.32A8,8,0,0,0,30,37a7.9,7.9,0,0,0,3.79-1,8,8,0,0,0,12.42,0A7.9,7.9,0,0,0,50,37a8,8,0,0,0,7.58-5.46c.69.17,1.46.3,2,.38A18.86,18.86,0,0,1,57.58,44.42Zm1.51-14.61a9.46,9.46,0,0,1-1.76-.44,1,1,0,0,0-.9,0,1,1,0,0,0-.53.71,6,6,0,0,1-9.38,3.8,1,1,0,0,0-1.43.28,6,6,0,0,1-10.18,0,1,1,0,0,0-.66-.45,1,1,0,0,0-.77.17,6,6,0,0,1-9.38-3.8,1,1,0,0,0-.53-.71,1,1,0,0,0-.9,0,7.75,7.75,0,0,1-1.59.4,18.92,18.92,0,0,1,2.09-4.71c1.19,4.57,9,6.63,16.83,6.63S55.73,29.6,56.85,25A19.06,19.06,0,0,1,59.09,29.81Zm-5-8h0A3.08,3.08,0,0,1,55,23.85c0,3.79-7.73,5.84-15,5.84s-15-2.05-15-5.84a3,3,0,0,1,.86-2.07A10.83,10.83,0,0,1,31,19.1v2.07c-2.13.66-3.45,1.49-3.85,2.18a1,1,0,0,0,0,1c.4.68,1.71,1.5,3.84,2.16v.17h.6a32.22,32.22,0,0,0,8.4,1c7.51,0,12-2,12.84-3.33a1,1,0,0,0,0-1c-.53-.9-2.63-2-6.09-2.73l.61-1.92C50.51,19.35,52.94,20.42,54.14,21.78Z"/></g></svg>