<?xml version="1.0" encoding="UTF-8" standalone="no"?> 
<svg width="64" height="64" viewBox="0 0 64 64" fill="none" xmlns="http://www.w3.org/2000/svg">
<path d="M10.566 30.5C11.111 32.714 15.207 34.5 20 34.5C24.793 34.5 28.889 32.714 29.434 30.5H10.566Z" fill="#d3d3d3"/>
<path d="M20 25.5C15.207 25.5 11.111 27.286 10.566 29.5H29.434C28.889 27.286 24.793 25.5 20 25.5Z" fill="#d3d3d3"/>
<path d="M35.329 42.776L32 36.118L28.671 42.776L32 44.441L35.329 42.776Z" fill="#d3d3d3"/>
<path d="M11.879 48.106C10.884 47.114 9.512 46.5 8 46.5C4.968 46.5 2.5 48.968 2.5 52C2.5 55.032 4.968 57.5 8 57.5C11.032 57.5 13.5 55.032 13.5 52C13.5 50.889 13.166 49.855 12.597 48.989L11.879 48.106ZM8 54.5C6.621 54.5 5.5 53.379 5.5 52C5.5 50.621 6.621 49.5 8 49.5C9.379 49.5 10.5 50.621 10.5 52C10.5 53.379 9.379 54.5 8 54.5Z" fill="#d3d3d3"/>
<path d="M55.087 18.13L60.287 12.063L57.183 9.524L51.581 15.126L55.087 18.13Z" fill="#d3d3d3"/>
<path d="M50.82 14.473L56.405 8.888L53.259 6.313L47.807 11.89L50.82 14.473Z" fill="#d3d3d3"/>
<path d="M52.482 5.677L50.033 3.674L44.581 9.126L47.046 11.238L52.482 5.677Z" fill="#d3d3d3"/>
<path d="M12.419 15.126L6.817 9.524L3.713 12.063L8.913 18.13L12.419 15.126Z" fill="#d3d3d3"/>
<path d="M16.193 11.89L10.741 6.313L7.595 8.888L13.18 14.473L16.193 11.89Z" fill="#d3d3d3"/>
<path d="M19.419 9.126L13.967 3.674L11.518 5.677L16.954 11.238L19.419 9.126Z" fill="#d3d3d3"/>
<path d="M29.46 12.197L26.758 18.5H37.242L34.54 12.197C34.497 12.096 34.488 11.984 34.515 11.879L36.383 4.408C34.969 3.873 33.485 3.60201 32 3.60201C30.515 3.60201 29.031 3.87401 27.617 4.408L29.485 11.879C29.512 11.984 29.503 12.097 29.46 12.197Z" fill="#d3d3d3"/>
<path d="M34.566 30.5C35.111 32.714 39.207 34.5 44 34.5C48.793 34.5 52.889 32.714 53.434 30.5H34.566Z" fill="#d3d3d3"/>
<path d="M44 25.5C39.207 25.5 35.111 27.286 34.566 29.5H53.434C52.889 27.286 48.793 25.5 44 25.5Z" fill="#d3d3d3"/>
<path d="M56 46.5C54.488 46.5 53.116 47.114 52.121 48.106L51.403 48.989C50.834 49.855 50.5 50.889 50.5 52C50.5 55.032 52.968 57.5 56 57.5C59.032 57.5 61.5 55.032 61.5 52C61.5 48.968 59.032 46.5 56 46.5ZM56 54.5C54.621 54.5 53.5 53.379 53.5 52C53.5 50.621 54.621 49.5 56 49.5C57.379 49.5 58.5 50.621 58.5 52C58.5 53.379 57.379 54.5 56 54.5Z" fill="#d3d3d3"/>
<path d="M27.381 52.5L32 56.35L36.619 52.5H32H27.381Z" fill="#d3d3d3"/>
<path d="M33 51.5H37L35 48.833L33 51.5Z" fill="#d3d3d3"/>
<path d="M51.363 47.454L56.785 40.781C62.123 34.211 61.269 24.748 54.842 19.238L40.135 6.632C39.26 5.882 38.311 5.272 37.316 4.801L35.527 11.959L38.461 18.804C38.526 18.959 38.511 19.136 38.418 19.277C38.325 19.416 38.168 19.5 38 19.5H26C25.832 19.5 25.675 19.416 25.583 19.275C25.49 19.134 25.475 18.958 25.54 18.802L28.474 11.957L26.684 4.8C25.689 5.272 24.74 5.881 23.865 6.631L9.158 19.237C2.73 24.747 1.877 34.21 7.215 40.78L12.637 47.453C12.924 47.745 13.184 48.064 13.411 48.406L22.187 59.206C22.854 60.028 23.844 60.499 24.904 60.499H39.095C40.155 60.499 41.145 60.028 41.812 59.206L50.588 48.406C50.816 48.065 51.076 47.746 51.363 47.454ZM32.447 34.776L36.447 42.776C36.57 43.023 36.47 43.323 36.223 43.447L32.223 45.447C32.153 45.482 32.076 45.5 32 45.5C31.924 45.5 31.847 45.482 31.776 45.447L27.776 43.447C27.529 43.323 27.429 43.023 27.552 42.776L31.552 34.776C31.723 34.438 32.277 34.438 32.447 34.776ZM15.5 45H14.5V38H15.5V45ZM19.5 45H18.5V38H19.5V45ZM23.5 45H22.5V38H23.5V45ZM20 35.5C14.112 35.5 9.5 33.084 9.5 30C9.5 26.916 14.112 24.5 20 24.5C25.888 24.5 30.5 26.916 30.5 30C30.5 33.084 25.888 35.5 20 35.5ZM38.458 52.169C38.452 52.187 38.456 52.206 38.448 52.223C38.429 52.26 38.393 52.281 38.367 52.312C38.348 52.334 38.344 52.364 38.321 52.383L32.321 57.383C32.228 57.461 32.113 57.5 32 57.5C31.887 57.5 31.772 57.461 31.68 57.384L25.68 52.384C25.657 52.365 25.653 52.335 25.634 52.313C25.608 52.282 25.571 52.261 25.553 52.224C25.544 52.207 25.549 52.188 25.543 52.17C25.529 52.132 25.526 52.096 25.521 52.055C25.514 51.997 25.515 51.944 25.528 51.888C25.533 51.869 25.524 51.849 25.53 51.831C25.538 51.81 25.559 51.799 25.569 51.779C25.582 51.754 25.582 51.724 25.599 51.701L28.599 47.701C28.788 47.449 29.21 47.449 29.4 47.701L32 51.167L34.6 47.701C34.789 47.449 35.211 47.449 35.401 47.701L38.401 51.701C38.418 51.724 38.418 51.754 38.431 51.779C38.441 51.799 38.463 51.809 38.47 51.831C38.477 51.85 38.468 51.869 38.472 51.888C38.486 51.945 38.486 51.997 38.479 52.055C38.475 52.095 38.472 52.131 38.458 52.169ZM41.5 45H40.5V38H41.5V45ZM33.5 30C33.5 26.916 38.112 24.5 44 24.5C49.888 24.5 54.5 26.916 54.5 30C54.5 33.084 49.888 35.5 44 35.5C38.112 35.5 33.5 33.084 33.5 30ZM45.5 45H44.5V38H45.5V45ZM49.5 45H48.5V38H49.5V45Z" fill="#d3d3d3"/>
<path d="M29 48.833L27 51.5H31L29 48.833Z" fill="#d3d3d3"/>
<path d="M31 30C31 26.636 26.168 24 20 24C13.832 24 9 26.636 9 30C9 33.364 13.832 36 20 36C26.168 36 31 33.364 31 30ZM20 26C24.376 26 27.651 27.435 28.665 29H11.335C12.349 27.435 15.624 26 20 26ZM20 34C15.624 34 12.349 32.565 11.335 31H28.666C27.651 32.565 24.376 34 20 34Z" fill="#ec5242"/>
<path d="M55 30C55 26.636 50.168 24 44 24C37.832 24 33 26.636 33 30C33 33.364 37.832 36 44 36C50.168 36 55 33.364 55 30ZM44 26C48.376 26 51.651 27.435 52.665 29H35.335C36.349 27.435 39.624 26 44 26ZM35.335 31H52.666C51.652 32.565 48.376 34 44.001 34C39.626 34 36.349 32.565 35.335 31Z" fill="#ec5242"/>
<path d="M27.553 43.895L31.553 45.895C31.693 45.965 31.847 46 32 46C32.153 46 32.307 45.965 32.447 45.895L36.447 43.895C36.941 43.648 37.141 43.047 36.894 42.553L32.894 34.553C32.554 33.875 31.445 33.875 31.105 34.553L27.105 42.553C26.858 43.047 27.059 43.647 27.553 43.895ZM32 37.236L34.658 42.552L32 43.882L29.342 42.553L32 37.236Z" fill="#ec5242"/>
<path d="M38.989 52.055C38.991 52.015 38.997 51.977 38.995 51.936C38.991 51.866 38.974 51.799 38.955 51.731C38.948 51.707 38.949 51.682 38.941 51.659C38.94 51.656 38.938 51.654 38.937 51.651C38.904 51.563 38.859 51.478 38.801 51.4L38.795 51.392C38.794 51.39 38.793 51.389 38.791 51.387L35.8 47.4C35.423 46.896 34.577 46.896 34.2 47.4L32 50.334L29.8 47.4C29.423 46.896 28.577 46.896 28.2 47.4L25.21 51.387C25.209 51.389 25.207 51.39 25.206 51.392L25.2 51.4C25.142 51.478 25.097 51.562 25.064 51.651C25.063 51.654 25.061 51.656 25.059 51.659C25.05 51.683 25.051 51.708 25.045 51.732C25.026 51.799 25.01 51.867 25.005 51.936C25.002 51.976 25.008 52.014 25.011 52.054C25.014 52.11 25.017 52.166 25.03 52.221C25.04 52.264 25.056 52.303 25.071 52.344C25.084 52.378 25.089 52.414 25.105 52.447C25.113 52.463 25.126 52.475 25.135 52.491C25.156 52.529 25.182 52.563 25.209 52.598C25.243 52.642 25.277 52.684 25.317 52.721C25.332 52.736 25.342 52.754 25.358 52.768L31.358 57.768C31.545 57.923 31.772 58 32 58C32.228 58 32.455 57.923 32.641 57.769L38.641 52.769C38.657 52.755 38.667 52.737 38.682 52.722C38.722 52.684 38.757 52.643 38.79 52.599C38.817 52.564 38.843 52.53 38.864 52.492C38.873 52.476 38.886 52.465 38.894 52.448C38.91 52.415 38.916 52.379 38.928 52.345C38.943 52.304 38.959 52.265 38.969 52.222C38.983 52.167 38.986 52.111 38.989 52.055ZM35 49.667L36 51H34L35 49.667ZM29 49.667L30 51H28L29 49.667ZM32 55.698L28.762 53H32H35.238L32 55.698Z" fill="#ec5242"/>
<path d="M42 38H40V45H42V38Z" fill="#ec5242"/>
<path d="M46 38H44V45H46V38Z" fill="#ec5242"/>
<path d="M50 38H48V45H50V38Z" fill="#ec5242"/>
<path d="M16 38H14V45H16V38Z" fill="#ec5242"/>
<path d="M20 38H18V45H20V38Z" fill="#ec5242"/>
<path d="M24 38H22V45H24V38Z" fill="#ec5242"/>
<path d="M56 45C55.749 45 55.501 45.015 55.256 45.041L57.949 41.727C63.598 34.773 62.907 24.878 56.519 18.763L61.758 12.651C61.934 12.447 62.019 12.18 61.995 11.913C61.972 11.644 61.841 11.397 61.632 11.226L50.632 2.22599C50.236 1.89999 49.655 1.92899 49.292 2.29299L43.792 7.79299L41.11 5.49299C35.831 0.966993 28.167 0.966993 22.889 5.49299L20.206 7.79199L14.706 2.29199C14.343 1.92799 13.763 1.89799 13.366 2.22499L2.366 11.225C2.157 11.396 2.026 11.643 2.003 11.912C1.98 12.18 2.065 12.446 2.241 12.65L7.48 18.762C1.093 24.877 0.402 34.772 6.05 41.726L8.743 45.04C8.499 45.015 8.251 45 8 45C4.141 45 1 48.141 1 52C1 55.859 4.141 59 8 59C11.624 59 14.614 56.23 14.965 52.696L21.024 60.152C21.977 61.327 23.391 62 24.904 62H39.095C40.609 62 42.023 61.327 42.976 60.153L49.035 52.697C49.386 56.23 52.376 59 56 59C59.859 59 63 55.859 63 52C63 48.141 59.859 45 56 45ZM55.033 17.426L52.317 15.098L57.218 10.197L59.576 12.126L55.033 17.426ZM48.537 11.858L53.297 6.98899L55.662 8.92399L50.794 13.792L48.537 11.858ZM50.067 4.34699L51.743 5.71799L47.015 10.554L45.316 9.09799L50.067 4.34699ZM32 4.10299C33.28 4.10299 34.557 4.31899 35.787 4.73199L34.03 11.758C33.976 11.97 33.995 12.194 34.081 12.394L36.483 18H27.516L29.918 12.394C30.004 12.194 30.022 11.97 29.969 11.758L28.212 4.73199C29.443 4.31899 30.72 4.10299 32 4.10299ZM13.933 4.34699L18.684 9.09799L16.985 10.554L12.257 5.71799L13.933 4.34699ZM13.207 13.793L8.338 8.92399L10.703 6.98899L15.463 11.858L13.207 13.793ZM6.783 10.197L11.684 15.098L8.968 17.426L4.426 12.126L6.783 10.197ZM13 52C13 54.757 10.757 57 8 57C5.243 57 3 54.757 3 52C3 49.243 5.243 47 8 47C9.369 47 10.61 47.555 11.514 48.45L12.177 49.266C12.694 50.053 13 50.99 13 52ZM41.424 58.893C40.853 59.597 40.004 60 39.096 60H24.904C23.996 60 23.147 59.597 22.576 58.892L13.815 48.11C13.584 47.766 13.321 47.446 13.034 47.149L7.603 40.465C2.437 34.107 3.263 24.948 9.483 19.616L24.19 7.01099C24.869 6.42999 25.597 5.94599 26.354 5.53899L27.948 11.916L25.081 18.606C24.948 18.915 24.98 19.269 25.165 19.55C25.351 19.831 25.664 20 26 20H38C38.336 20 38.649 19.831 38.835 19.551C39.02 19.27 39.052 18.915 38.919 18.607L36.052 11.917L37.646 5.53999C38.403 5.94699 39.131 6.42999 39.81 7.01199L54.517 19.617C60.737 24.949 61.563 34.107 56.397 40.466L50.969 47.147C50.681 47.446 50.416 47.767 50.185 48.112L41.424 58.893ZM56 57C53.243 57 51 54.757 51 52C51 50.991 51.306 50.054 51.822 49.267L52.487 48.449C53.391 47.555 54.631 47 56 47C58.757 47 61 49.243 61 52C61 54.757 58.757 57 56 57Z" fill="#ec5242"/>
<path d="M56 49C54.346 49 53 50.346 53 52C53 53.654 54.346 55 56 55C57.654 55 59 53.654 59 52C59 50.346 57.654 49 56 49ZM56 53C55.448 53 55 52.552 55 52C55 51.448 55.448 51 56 51C56.552 51 57 51.448 57 52C57 52.552 56.552 53 56 53Z" fill="#ec5242"/>
<path d="M8 49C6.346 49 5 50.346 5 52C5 53.654 6.346 55 8 55C9.654 55 11 53.654 11 52C11 50.346 9.654 49 8 49ZM8 53C7.448 53 7 52.552 7 52C7 51.448 7.448 51 8 51C8.552 51 9 51.448 9 52C9 52.552 8.552 53 8 53Z" fill="#ec5242"/>
</svg>
