<?xml version="1.0" encoding="utf-8"?>
<!-- Generator: Adobe Illustrator 17.0.0, SVG Export Plug-In . SVG Version: 6.00 Build 0)  -->
<!DOCTYPE svg PUBLIC "-//W3C//DTD SVG 1.1//EN" "http://www.w3.org/Graphics/SVG/1.1/DTD/svg11.dtd">
<svg version="1.1" id="icon" xmlns="http://www.w3.org/2000/svg" xmlns:xlink="http://www.w3.org/1999/xlink" x="0px" y="0px"
	 width="128px" height="128px" viewBox="0 0 128 128" enable-background="new 0 0 128 128" xml:space="preserve">
<ellipse fill="#d3d3d3" cx="63.574" cy="111.679" rx="47.667" ry="11.813"/>
<path fill="#d3d3d3" d="M19.242,107.692c0-17.192,19.923-30.192,44.5-30.192c24.576,0,44.5,14,44.5,30.192"/>
<path fill="#d3d3d3" d="M108.242,110.692c-1.657,0-3-1.343-3-3c0-14.74-19.005-27.192-41.5-27.192
	c-23.271,0-41.5,11.944-41.5,27.192c0,1.657-1.343,3-3,3c-1.657,0-3-1.343-3-3c0-18.612,20.864-33.192,47.5-33.192
	c26.191,0,47.5,14.89,47.5,33.192C111.242,109.349,109.899,110.692,108.242,110.692z"/>
<path fill="#d3d3d3" d="M108.242,107.74c0,5.443-20.154,9.855-44.649,9.855c-24.495,0-44.351-4.412-44.351-9.855"/>
<path fill="#d3d3d3" d="M63.593,120.595c-4.847,0-47.351-0.361-47.351-12.855c0-1.657,1.343-3,3-3c1.6,0,2.907,1.253,2.995,2.83
	c1.503,2.56,16.373,7.025,41.355,7.025c25.112,0,40.107-4.471,41.655-7.037c0.094-1.572,1.398-2.818,2.994-2.818
	c1.657,0,3,1.343,3,3C111.242,120.449,65.539,120.595,63.593,120.595z"/>
<path fill="#ec5242" d="M70.003,100.501c-1.508,0-2.807-1.135-2.977-2.669c-0.085-0.759-2.018-18.753,2.097-33.156
	c5.633-19.715,13.379-33.799,13.706-34.39c0.804-1.449,2.629-1.971,4.077-1.169c1.449,0.803,1.974,2.628,1.171,4.078
	C88,33.333,80.325,47.306,74.892,66.324c-3.794,13.278-1.923,30.67-1.903,30.845c0.184,1.646-1.004,3.13-2.65,3.313
	C70.226,100.494,70.113,100.501,70.003,100.501z"/>
<path fill="#ec5242" d="M57.156,105.5c-0.031,0-0.062-0.001-0.093-0.002c-1.655-0.05-2.956-1.432-2.907-3.086
	c0.008-0.284,0.529-27.001-18.131-45.799c-1.167-1.176-1.16-3.075,0.016-4.243c1.176-1.167,3.075-1.16,4.242,0.016
	c20.525,20.678,19.906,49.009,19.87,50.205C60.103,104.216,58.77,105.5,57.156,105.5z"/>
<path fill="#d3d3d3" d="M39.007,57.5c0,0-15.181,3.037-15.181,20.139C18.94,71.062,17.007,63.5,25.007,55.5
	c-6.014-0.752-10.859-2.761-16.966,3.346C7.289,50.953,17.047,40.93,27.007,44.5c-3.383-4.51-5-7-14-9
	c2.819-3.946,16-8,23.598,4.554C39.007,32.5,45.007,25.5,57.007,28.5c-3.946,1.128-8.751,7.044-11.381,16.816
	c5.074-0.376,14.47-1.504,19.543,8.268c-6.577-1.314-20.283-3.382-22.162,2.256C39.624,56.967,39.007,57.5,39.007,57.5z"/>
<path fill="#ec5242" d="M23.826,80.639c-0.931,0-1.832-0.435-2.409-1.211c-5.711-7.689-6.396-14.977-2.065-21.727
	c-0.667-0.077-1.313-0.125-1.935-0.125c-2.006,0-4.274,0.411-7.255,3.392c-0.822,0.821-2.043,1.094-3.136,0.702
	c-1.093-0.393-1.861-1.382-1.971-2.538c-0.385-4.042,1.349-8.615,4.639-12.233c2.79-3.07,6.335-5.11,10.04-5.84
	c-1.618-1.039-3.795-1.832-7.377-2.628c-0.983-0.219-1.79-0.915-2.15-1.855c-0.36-0.94-0.225-1.998,0.36-2.817
	c2.173-3.043,7.206-5.168,12.238-5.168c3.107,0,8.405,0.829,13.074,5.612c3.422-6.043,8.958-9.411,15.746-9.411
	c1.931,0,3.987,0.269,6.111,0.8c1.317,0.33,2.25,1.503,2.272,2.86c0.023,1.358-0.87,2.562-2.175,2.935
	c-1.975,0.565-5.441,3.863-8.02,10.693c0.134-0.001,0.269-0.002,0.404-0.002c8.317,0,14.079,3.313,17.616,10.126
	c0.532,1.024,0.429,2.263-0.265,3.185c-0.693,0.923-1.856,1.366-2.986,1.139c-3.245-0.649-7.972-1.421-12.071-1.421
	c-4.812,0-6.448,1.058-6.657,1.684c-0.299,0.896-1.002,1.6-1.898,1.898c-1.875,0.625-2.74,1.018-3.068,1.184
	c-0.392,0.458-0.636,0.441-1.292,0.572c-0.507,0.107-12.769,2.854-12.769,17.197c0,1.294-0.83,2.442-2.058,2.848
	C24.458,80.589,24.14,80.639,23.826,80.639z M17.417,51.575c1.873,0,3.699,0.293,5.464,0.577c0.813,0.131,1.643,0.265,2.497,0.371
	c1.137,0.143,2.094,0.92,2.465,2.004c0.372,1.084,0.094,2.285-0.716,3.095c-3.345,3.346-4.831,6.655-4.47,10.2
	c3.357-8.151,10.575-12.035,15.207-13.142c0.552-0.302,1.46-0.721,2.989-1.27c1.786-2.858,5.695-4.305,11.655-4.305
	c1.421,0,2.895,0.08,4.358,0.211c-1.847-0.841-4.04-1.241-6.653-1.241c-1.344,0-2.628,0.099-3.761,0.187l-0.607,0.046
	c-0.966,0.074-1.914-0.33-2.534-1.08c-0.62-0.749-0.837-1.752-0.585-2.691c1.478-5.489,3.68-10.14,6.283-13.494
	c-5.573,1.134-8.259,5.867-9.548,9.92c-0.357,1.122-1.336,1.931-2.505,2.07c-1.167,0.139-2.311-0.419-2.92-1.426
	c-3.511-5.801-8.047-7.019-11.235-7.019c-0.75,0-1.461,0.065-2.125,0.177c3.965,1.797,5.876,4.123,8.413,7.514l0.315,0.421
	c0.795,1.06,0.801,2.516,0.014,3.582c-0.788,1.065-2.181,1.488-3.426,1.043c-4.027-1.444-8.596,0.017-11.862,3.609
	c-0.364,0.4-0.7,0.817-1.007,1.245C14.489,51.773,15.912,51.575,17.417,51.575z"/>
<path fill="#d3d3d3" d="M85.619,43.841c0,0,15.865,1.983,15.865,22.035c5.73-7.712,10.862-18.681-1.477-28.376
	c7.051-0.883,12.826-0.821,19.988,6.341c0.881-9.254-8.31-21.528-19.988-17.341c3.966-5.289,3.682-8.22,17.344-8.22
	c-3.306-4.628-17.85-10.578-30.851,3.525C80.771,13.652,71.686,7.449,60.007,14.5c4.628,1.321,10.915,0.541,14,12
	c-5.949-0.441-17.05-0.458-23,11c7.712-1.542,22.713-3.796,24.917,2.815C79.889,41.637,85.619,43.841,85.619,43.841z"/>
<path fill="#ec5242" d="M101.484,68.876c-0.315,0-0.632-0.049-0.942-0.152c-1.229-0.406-2.058-1.554-2.058-2.848
	c0-17.032-12.715-18.986-13.256-19.061c-0.228-0.032-0.472-0.092-0.686-0.175c-0.057-0.021-5.713-2.195-9.566-3.479
	c-0.896-0.298-1.599-1.001-1.897-1.897c-0.505-1.514-3.524-2.417-8.076-2.417c-3.603,0-8.113,0.537-13.407,1.595
	c-1.134,0.226-2.292-0.217-2.986-1.139c-0.693-0.922-0.796-2.161-0.265-3.185C52.598,27.926,59.78,23.644,69.7,23.379
	c-2.069-4.218-4.851-4.78-7.973-5.41c-0.833-0.168-1.694-0.342-2.544-0.584c-1.148-0.328-1.992-1.305-2.15-2.488
	c-0.158-1.184,0.401-2.348,1.423-2.965c3.853-2.326,7.728-3.505,11.519-3.505c6.141,0,11.905,3.049,16.828,8.861
	c6.624-5.96,13.154-7.298,17.68-7.298c7.306,0,13.057,3.394,15.309,6.547c0.653,0.915,0.74,2.117,0.226,3.117
	c-0.514,0.999-1.543,1.627-2.667,1.627c-5.886,0-8.671,0.474-10.423,1.536c3.886,0.56,7.549,2.576,10.494,5.815
	c3.928,4.32,6.059,10.257,5.56,15.494c-0.11,1.157-0.878,2.146-1.971,2.539c-1.099,0.394-2.316,0.119-3.137-0.702
	c-4.334-4.334-7.849-5.518-10.968-5.784c5.828,7.716,4.827,16.934-3.014,27.487C103.315,68.441,102.415,68.876,101.484,68.876z
	 M86.434,40.94c2.337,0.455,13.266,3.236,16.884,15.929c2.741-6.729,1.029-12.144-5.164-17.01c-0.952-0.748-1.361-1.995-1.037-3.161
	c0.323-1.167,1.316-2.024,2.518-2.174c1.533-0.192,3.552-0.413,5.565-0.413c3.832,0,7.232,0.832,10.466,2.615
	c-0.679-1.462-1.588-2.854-2.683-4.058c-2.353-2.587-5.295-4.012-8.285-4.012c-1.204,0-2.441,0.225-3.678,0.668
	c-1.25,0.446-2.639,0.023-3.427-1.043c-0.786-1.066-0.781-2.521,0.014-3.581c0.535-0.713,0.987-1.381,1.408-2.001
	c2.094-3.086,3.856-5.299,8.338-6.467c-0.904-0.154-1.865-0.242-2.869-0.242c-3.896,0-9.798,1.362-15.777,7.849
	c-0.615,0.667-1.489,1.024-2.404,0.96c-0.905-0.06-1.735-0.527-2.257-1.269c-2.918-4.153-7.727-9.104-14.069-9.104
	c-0.118,0-0.235,0.002-0.354,0.005c2.849,1.781,5.592,5.01,7.281,11.289c0.253,0.939,0.035,1.942-0.584,2.691
	c-0.619,0.749-1.553,1.153-2.534,1.08c-1.157-0.086-2.142-0.125-3.098-0.125c-5.249,0-9.43,1.298-12.629,3.944
	c10.843-1.31,17.505,0.204,20.047,4.578C81.455,39.045,85.381,40.537,86.434,40.94z"/>
<circle fill="#d3d3d3" cx="83.413" cy="37" r="6.5"/>
<path fill="#d3d3d3" d="M83.41,46.5c-2.171,0-4.295-0.754-5.983-2.124c-1.97-1.599-3.199-3.87-3.462-6.394
	c-0.263-2.524,0.473-5,2.072-6.969c1.812-2.233,4.502-3.514,7.38-3.514c2.17,0,4.295,0.754,5.982,2.124
	c1.971,1.599,3.2,3.869,3.463,6.394c0.263,2.524-0.474,4.999-2.073,6.969C88.977,45.22,86.288,46.5,83.41,46.5z M83.417,33.5
	c-1.062,0-2.054,0.472-2.721,1.294c-0.59,0.726-0.86,1.638-0.764,2.568c0.097,0.93,0.55,1.767,1.275,2.355
	c0.797,0.647,1.638,0.783,2.202,0.783c1.062,0,2.053-0.472,2.72-1.294c0.59-0.727,0.861-1.638,0.765-2.568
	c-0.097-0.93-0.55-1.766-1.276-2.355C84.821,33.636,83.981,33.5,83.417,33.5z"/>
<circle fill="#d3d3d3" cx="85.507" cy="50.29" r="6.5"/>
<path fill="#ec5242" d="M85.503,59.791c-2.171,0-4.295-0.754-5.983-2.124c-1.97-1.6-3.199-3.87-3.462-6.394
	c-0.263-2.524,0.474-5,2.073-6.969c1.812-2.233,4.502-3.514,7.38-3.514c2.17,0,4.295,0.754,5.982,2.124
	c4.067,3.301,4.69,9.295,1.39,13.362C91.071,58.51,88.381,59.791,85.503,59.791z M85.511,46.79c-1.062,0-2.054,0.472-2.721,1.294
	c-0.59,0.727-0.861,1.638-0.765,2.568c0.097,0.93,0.55,1.767,1.275,2.356c0.797,0.646,1.638,0.782,2.202,0.782
	c1.062,0,2.054-0.472,2.721-1.294c1.217-1.499,0.986-3.708-0.512-4.924C86.915,46.926,86.075,46.79,85.511,46.79z"/>
<circle fill="#ec5242" cx="72.746" cy="43.797" r="6.5"/>
<path fill="#ec5242" d="M72.742,53.297c-2.171,0-4.296-0.754-5.983-2.125c-1.97-1.599-3.2-3.87-3.462-6.394
	c-0.262-2.523,0.474-4.999,2.073-6.969c1.812-2.233,4.501-3.514,7.379-3.514c2.171,0,4.296,0.754,5.983,2.124
	c4.066,3.301,4.691,9.295,1.391,13.362C78.31,52.017,75.62,53.297,72.742,53.297z M72.749,40.297c-1.062,0-2.054,0.472-2.721,1.295
	c-0.59,0.726-0.86,1.638-0.764,2.567c0.097,0.93,0.549,1.766,1.275,2.355c0.797,0.647,1.638,0.783,2.202,0.783
	c1.062,0,2.054-0.472,2.722-1.295c1.216-1.498,0.985-3.707-0.513-4.923C74.154,40.433,73.313,40.297,72.749,40.297z"/>
<path opacity="0.2" fill="#d3d3d3" d="M105.007,113.692c-1.657,0-3-1.343-3-3c0-14.74-19.005-27.192-41.5-27.192
	c-23.602,0-38.265,9.27-38.265,24.192c0,1.657-1.343,3-3,3c-1.657,0-3-1.343-3-3c0-18.341,17.375-30.192,44.265-30.192
	c26.191,0,47.5,14.89,47.5,33.192C108.007,112.349,106.664,113.692,105.007,113.692z"/>
</svg>
