<?xml version="1.0" encoding="UTF-8"?>
<svg xmlns="http://www.w3.org/2000/svg" xmlns:xlink="http://www.w3.org/1999/xlink" width="133.54pt" height="124.96pt" viewBox="0 0 133.54 124.96" version="1.1">
<defs>
<clipPath id="clip1">
  <path d="M 123 4 L 133.539063 4 L 133.539063 15 L 123 15 Z M 123 4 "/>
</clipPath>
<clipPath id="clip2">
  <path d="M 0 95 L 40 95 L 40 124.960938 L 0 124.960938 Z M 0 95 "/>
</clipPath>
<clipPath id="clip3">
  <path d="M 38 95 L 64 95 L 64 124.960938 L 38 124.960938 Z M 38 95 "/>
</clipPath>
<clipPath id="clip4">
  <path d="M 62 96 L 80 96 L 80 124.960938 L 62 124.960938 Z M 62 96 "/>
</clipPath>
<clipPath id="clip5">
  <path d="M 85 96 L 101 96 L 101 124.960938 L 85 124.960938 Z M 85 96 "/>
</clipPath>
<clipPath id="clip6">
  <path d="M 106 96 L 123 96 L 123 124.960938 L 106 124.960938 Z M 106 96 "/>
</clipPath>
</defs>
<g id="surface1">
<g clip-path="url(#clip1)" clip-rule="nonzero">
<path style=" stroke:none;fill-rule:nonzero;fill:#4f5461;fill-opacity:1;" d="M 127.285156 8.832031 L 127.285156 7.007813 L 128.5 7.007813 C 129.113281 7.007813 129.785156 7.140625 129.785156 7.871094 C 129.785156 8.78125 129.109375 8.832031 128.355469 8.832031 Z M 127.285156 9.59375 L 128.308594 9.59375 L 129.863281 12.152344 L 130.875 12.152344 L 129.1875 9.550781 C 130.050781 9.4375 130.714844 8.984375 130.714844 7.921875 C 130.714844 6.761719 130.023438 6.242188 128.636719 6.242188 L 126.386719 6.242188 L 126.386719 12.152344 L 127.285156 12.152344 Z M 128.367188 14.304688 C 131.152344 14.304688 133.535156 12.152344 133.535156 9.183594 C 133.535156 6.242188 131.152344 4.082031 128.367188 4.082031 C 125.546875 4.082031 123.164063 6.242188 123.164063 9.183594 C 123.164063 12.152344 125.546875 14.304688 128.367188 14.304688 Z M 124.191406 9.183594 C 124.191406 6.761719 126.019531 4.9375 128.367188 4.9375 C 130.671875 4.9375 132.507813 6.761719 132.507813 9.183594 C 132.507813 11.644531 130.671875 13.464844 128.367188 13.464844 C 126.019531 13.464844 124.191406 11.644531 124.191406 9.183594 "/>
</g>
<g clip-path="url(#clip2)" clip-rule="nonzero">
<path style=" stroke:none;fill-rule:nonzero;fill:#4f5461;fill-opacity:1;" d="M 35.710938 96.179688 L 29.152344 115.921875 L 19.769531 95.769531 L 10.386719 115.9375 L 3.722656 96.179688 L 0.257813 96.179688 L 9.847656 124.960938 L 19.667969 103.867188 L 29.53125 124.953125 L 39.179688 96.179688 L 35.710938 96.179688 "/>
</g>
<g clip-path="url(#clip3)" clip-rule="nonzero">
<path style=" stroke:none;fill-rule:nonzero;fill:#4f5461;fill-opacity:1;" d="M 54.808594 112.722656 L 47.007813 112.722656 L 50.921875 103.878906 Z M 50.925781 95.542969 L 38.332031 124.066406 L 41.988281 124.066406 L 45.585938 115.949219 L 56.222656 115.949219 L 59.820313 124.066406 L 63.480469 124.066406 L 50.925781 95.542969 "/>
</g>
<g clip-path="url(#clip4)" clip-rule="nonzero">
<path style=" stroke:none;fill-rule:nonzero;fill:#4f5461;fill-opacity:1;" d="M 62.523438 96.253906 L 62.523438 99.5625 L 69.453125 99.5625 L 69.453125 124.066406 L 72.921875 124.066406 L 72.921875 99.5625 L 79.859375 99.5625 L 79.859375 96.253906 L 62.523438 96.253906 "/>
</g>
<g clip-path="url(#clip5)" clip-rule="nonzero">
<path style=" stroke:none;fill-rule:nonzero;fill:#4f5461;fill-opacity:1;" d="M 85.972656 96.253906 L 85.972656 124.066406 L 100.535156 124.066406 L 100.535156 120.753906 L 89.4375 120.753906 L 89.4375 110.589844 L 100.25 110.589844 L 100.25 107.28125 L 89.4375 107.28125 L 89.4375 99.5625 L 100.535156 99.5625 L 100.535156 96.253906 L 85.972656 96.253906 "/>
</g>
<g clip-path="url(#clip6)" clip-rule="nonzero">
<path style=" stroke:none;fill-rule:nonzero;fill:#4f5461;fill-opacity:1;" d="M 114.589844 100.074219 C 113.402344 99.554688 111.785156 99.5625 110.355469 99.5625 L 109.925781 99.5625 L 109.925781 108.410156 L 111.210938 108.410156 C 112.789063 108.410156 114.179688 108.332031 115.34375 107.402344 C 116.34375 106.5625 116.917969 105.316406 116.917969 103.964844 C 116.917969 102.179688 116.050781 100.730469 114.589844 100.074219 Z M 122.308594 124.066406 L 118.195313 124.066406 L 109.925781 112.421875 L 109.925781 124.066406 L 106.449219 124.066406 L 106.449219 96.253906 L 110.675781 96.253906 C 112.808594 96.253906 115.222656 96.253906 117.289063 97.71875 C 119.273438 99.066406 120.375 101.3125 120.375 104.039063 C 120.375 106.246094 119.65625 108.128906 118.285156 109.476563 C 117.078125 110.671875 115.421875 111.402344 113.453125 111.640625 L 122.308594 124.066406 "/>
</g>
<path style=" stroke:none;fill-rule:nonzero;fill:#4f5461;fill-opacity:1;" d="M 95.644531 1.476563 C 95.640625 1.210938 95.550781 0.953125 95.394531 0.742188 L 95.308594 0.625 C 95.171875 0.441406 94.984375 0.292969 94.773438 0.203125 L 94.523438 0.101563 C 94.367188 0.0351563 94.203125 0.00390625 94.03125 0.00390625 L 77.140625 0.0195313 C 76.859375 0.0195313 76.582031 0.113281 76.359375 0.289063 L 76.246094 0.375 C 76.125 0.472656 76.019531 0.589844 75.9375 0.722656 L 75.871094 0.835938 C 75.746094 1.035156 75.683594 1.265625 75.683594 1.5 L 75.683594 2.613281 C 75.683594 2.824219 75.734375 3.03125 75.835938 3.21875 L 75.90625 3.347656 C 76.046875 3.613281 76.277344 3.816406 76.554688 3.929688 L 76.773438 4.015625 C 76.878906 4.058594 76.992188 4.085938 77.105469 4.097656 L 78.027344 4.203125 L 78.671875 4.363281 L 79.21875 4.574219 L 79.203125 76.828125 C 79.207031 76.726563 79.152344 77.28125 79.136719 77.480469 L 79 78.097656 L 78.753906 78.710938 L 78.4375 79.203125 L 78.273438 79.367188 L 78.0625 79.523438 L 77.808594 79.648438 L 77.46875 79.765625 L 77.085938 79.832031 L 76.589844 79.851563 L 75.839844 79.796875 L 75.703125 79.761719 L 75.226563 79.519531 L 75.082031 79.410156 L 74.933594 79.25 L 74.804688 79.074219 L 74.503906 78.460938 L 74.25 77.582031 L 74.089844 76.371094 C 74.097656 76.492188 74.046875 74.964844 74.046875 74.964844 C 74.046875 75.011719 74.074219 60.476563 74.074219 60.476563 C 74.070313 60.542969 74.136719 59.257813 74.136719 59.257813 C 74.132813 59.308594 74.207031 58.570313 74.230469 58.332031 L 74.496094 57.09375 L 74.84375 56.253906 C 74.804688 56.34375 75.019531 55.914063 75.019531 55.914063 C 75.109375 55.734375 75.160156 55.535156 75.160156 55.332031 L 75.160156 55.0625 C 75.160156 54.828125 75.09375 54.59375 74.972656 54.394531 L 74.898438 54.277344 C 74.769531 54.066406 74.585938 53.898438 74.363281 53.789063 L 73.105469 53.183594 C 72.933594 53.097656 72.742188 53.054688 72.550781 53.054688 L 72.277344 53.054688 C 72.023438 53.054688 71.78125 53.128906 71.570313 53.265625 L 71.460938 53.339844 C 71.398438 53.382813 71.339844 53.429688 71.285156 53.480469 L 61.539063 62.804688 C 61.449219 62.894531 61.367188 62.996094 61.304688 63.109375 L 61.226563 63.25 C 61.125 63.441406 61.070313 63.652344 61.070313 63.867188 L 61.042969 74.179688 C 61.042969 74.226563 61.085938 75.570313 61.09375 75.695313 L 61.339844 77.597656 C 61.347656 77.648438 61.355469 77.695313 61.367188 77.742188 L 61.660156 78.9375 C 61.691406 79.03125 62.074219 80.191406 62.074219 80.191406 C 62.089844 80.242188 62.109375 80.289063 62.128906 80.332031 L 62.640625 81.417969 C 62.660156 81.464844 62.683594 81.503906 62.707031 81.546875 L 63.332031 82.558594 C 63.355469 82.601563 63.386719 82.640625 63.417969 82.679688 L 64.152344 83.605469 C 64.183594 83.644531 64.214844 83.679688 64.25 83.714844 L 65.101563 84.566406 C 65.140625 84.601563 65.175781 84.636719 65.21875 84.667969 L 66.199219 85.441406 C 66.242188 85.472656 66.289063 85.503906 66.335938 85.53125 L 67.445313 86.195313 C 67.488281 86.21875 67.53125 86.242188 67.574219 86.261719 L 68.8125 86.820313 C 68.925781 86.863281 70.289063 87.328125 70.289063 87.328125 C 70.328125 87.34375 70.371094 87.355469 70.414063 87.363281 L 71.914063 87.710938 C 72.027344 87.734375 73.679688 87.960938 73.679688 87.960938 C 73.757813 87.972656 75.535156 88.101563 75.535156 88.101563 C 75.636719 88.105469 77.746094 88.089844 77.746094 88.089844 C 77.859375 88.085938 80.003906 87.878906 80.003906 87.878906 C 80.050781 87.875 80.101563 87.867188 80.148438 87.855469 L 82.046875 87.453125 C 82.089844 87.445313 82.136719 87.433594 82.179688 87.417969 L 83.855469 86.871094 C 83.90625 86.851563 83.957031 86.832031 84.003906 86.808594 L 85.460938 86.117188 C 85.566406 86.0625 86.226563 85.671875 86.226563 85.671875 C 86.269531 85.648438 86.308594 85.621094 86.34375 85.589844 L 87.496094 84.722656 C 87.535156 84.695313 87.574219 84.664063 87.605469 84.628906 L 88.59375 83.695313 C 88.632813 83.65625 88.671875 83.613281 88.707031 83.574219 L 89.523438 82.558594 C 89.554688 82.519531 89.582031 82.480469 89.609375 82.4375 L 90.257813 81.410156 C 90.316406 81.308594 90.851563 80.253906 90.851563 80.253906 C 90.875 80.214844 90.890625 80.175781 90.90625 80.132813 L 91.300781 79.105469 C 91.335938 79.003906 91.625 78.011719 91.625 78.011719 C 91.648438 77.917969 91.847656 76.988281 91.847656 76.988281 C 91.867188 76.871094 92.050781 75.257813 92.050781 75.257813 C 92.054688 75.207031 92.058594 75.160156 92.058594 75.109375 L 92.074219 4.589844 L 92.402344 4.4375 L 93.371094 4.1875 L 94.332031 4.066406 C 94.476563 4.046875 94.613281 4.003906 94.742188 3.941406 C 95.027344 3.800781 95.355469 3.5 95.472656 3.207031 L 95.574219 2.941406 C 95.636719 2.789063 95.664063 2.621094 95.664063 2.453125 L 95.644531 1.476563 "/>
<path style=" stroke:none;fill-rule:nonzero;fill:#4f5461;fill-opacity:1;" d="M 34.007813 28.859375 C 33.796875 29.101563 33.503906 29.25 33.1875 29.28125 C 33.53125 29.246094 33.847656 29.085938 34.0625 28.8125 C 34.179688 28.65625 34.265625 28.484375 34.304688 28.300781 C 34.308594 28.289063 34.308594 28.273438 34.3125 28.257813 C 34.320313 28.21875 34.328125 28.175781 34.332031 28.136719 C 34.300781 28.402344 34.191406 28.660156 34.007813 28.859375 "/>
<path style=" stroke:none;fill-rule:nonzero;fill:#4f5461;fill-opacity:1;" d="M 34.296875 27.726563 C 34.3125 27.789063 34.324219 27.851563 34.328125 27.914063 C 34.324219 27.851563 34.3125 27.789063 34.296875 27.726563 "/>
<path style=" stroke:none;fill-rule:nonzero;fill:#4f5461;fill-opacity:1;" d="M 34.332031 28.109375 C 34.335938 28.0625 34.335938 28.015625 34.332031 27.96875 C 34.335938 28.015625 34.335938 28.0625 34.332031 28.109375 "/>
<path style=" stroke:none;fill-rule:nonzero;fill:#4f5461;fill-opacity:1;" d="M 34.3125 28.257813 C 34.308594 28.273438 34.308594 28.289063 34.304688 28.300781 C 34.308594 28.289063 34.308594 28.273438 34.3125 28.257813 "/>
<path style=" stroke:none;fill-rule:nonzero;fill:#4f5461;fill-opacity:1;" d="M 34.328125 27.914063 C 34.324219 27.851563 34.3125 27.789063 34.296875 27.726563 C 34.3125 27.789063 34.324219 27.851563 34.328125 27.914063 Z M 34.332031 28.109375 C 34.335938 28.0625 34.335938 28.015625 34.332031 27.96875 C 34.335938 28.015625 34.335938 28.0625 34.332031 28.109375 Z M 34.0625 28.8125 C 33.847656 29.085938 33.53125 29.246094 33.1875 29.28125 C 33.503906 29.25 33.796875 29.101563 34.007813 28.859375 C 34.191406 28.660156 34.300781 28.402344 34.332031 28.136719 C 34.328125 28.175781 34.320313 28.21875 34.3125 28.257813 C 34.320313 28.210938 34.328125 28.164063 34.332031 28.117188 C 34.339844 28.03125 34.339844 27.949219 34.328125 27.863281 L 31.285156 1.351563 C 31.265625 1.164063 31.199219 0.984375 31.101563 0.824219 L 31.03125 0.710938 C 30.890625 0.488281 30.683594 0.3125 30.445313 0.207031 L 30.199219 0.105469 C 30.042969 0.0390625 29.871094 0.00390625 29.703125 0.00390625 L 1.480469 0.0195313 C 1.167969 0.0195313 0.867188 0.132813 0.636719 0.339844 L 0.535156 0.425781 C 0.476563 0.480469 0.417969 0.542969 0.367188 0.605469 L 0.28125 0.722656 C 0.113281 0.9375 0.0195313 1.203125 0.015625 1.480469 L 0 2.457031 C 0 2.511719 0 2.566406 0.0078125 2.617188 L 0.0234375 2.753906 C 0.046875 2.960938 0.117188 3.15625 0.234375 3.332031 L 0.324219 3.460938 C 0.46875 3.671875 0.671875 3.835938 0.914063 3.933594 L 1.132813 4.019531 C 1.238281 4.058594 1.34375 4.085938 1.457031 4.097656 L 2.363281 4.203125 L 3.019531 4.363281 L 3.574219 4.582031 L 3.574219 82.742188 L 3.535156 82.765625 L 2.898438 83 L 1.949219 83.21875 C 2.070313 83.195313 1.320313 83.289063 1.320313 83.289063 C 1.085938 83.320313 0.867188 83.414063 0.683594 83.558594 L 0.582031 83.640625 C 0.507813 83.703125 0.4375 83.769531 0.378906 83.847656 L 0.289063 83.957031 C 0.113281 84.183594 0.015625 84.460938 0.015625 84.75 L 0.015625 85.992188 C 0.015625 86.304688 0.132813 86.609375 0.34375 86.84375 L 0.429688 86.941406 C 0.460938 86.980469 0.5 87.015625 0.535156 87.046875 L 0.636719 87.136719 C 0.867188 87.34375 1.167969 87.453125 1.480469 87.453125 L 18.660156 87.453125 C 18.945313 87.453125 19.21875 87.359375 19.445313 87.183594 L 19.558594 87.097656 C 19.640625 87.03125 19.71875 86.957031 19.78125 86.875 C 19.957031 86.652344 20.128906 86.273438 20.128906 85.992188 L 20.128906 84.75 C 20.128906 84.492188 20.046875 84.238281 19.902344 84.027344 L 19.828125 83.914063 C 19.695313 83.726563 19.515625 83.574219 19.304688 83.476563 L 19.105469 83.386719 C 19.011719 83.34375 18.914063 83.3125 18.816406 83.292969 L 17.324219 83.003906 L 16.574219 82.734375 L 16.574219 48.03125 L 17.546875 48.042969 C 17.546875 48.042969 17.886719 48.082031 18.09375 48.105469 L 18.488281 48.25 L 18.558594 48.292969 L 18.882813 48.597656 L 19.257813 49.144531 L 19.464844 49.539063 C 19.429688 49.460938 20.253906 51.324219 20.253906 51.324219 C 20.230469 51.273438 20.832031 52.820313 20.855469 52.882813 C 20.855469 52.890625 21.019531 53.410156 21.019531 53.410156 C 21.039063 53.472656 21.066406 53.535156 21.09375 53.59375 L 21.453125 54.316406 C 21.457031 54.332031 21.746094 55.074219 21.746094 55.074219 C 21.75 55.085938 24.179688 61.113281 24.179688 61.113281 C 24.210938 61.1875 24.246094 61.261719 24.289063 61.328125 L 24.363281 61.441406 C 24.503906 61.65625 24.707031 61.828125 24.941406 61.925781 L 25.191406 62.03125 C 25.355469 62.101563 25.539063 62.132813 25.722656 62.128906 L 26.734375 62.097656 C 26.992188 62.089844 27.246094 62.003906 27.457031 61.847656 C 27.5625 61.769531 27.753906 61.601563 27.828125 61.496094 L 27.910156 61.382813 C 28.066406 61.164063 28.152344 60.902344 28.152344 60.632813 L 28.152344 28.746094 C 28.152344 28.445313 28.046875 28.152344 27.851563 27.921875 C 27.820313 27.886719 27.707031 27.753906 27.671875 27.722656 L 27.574219 27.628906 C 27.335938 27.40625 27.023438 27.277344 26.695313 27.277344 L 25.546875 27.277344 C 25.203125 27.277344 24.871094 27.417969 24.632813 27.664063 L 24.449219 27.855469 C 24.332031 27.972656 24.242188 28.109375 24.179688 28.261719 L 21.738281 34.199219 C 21.75 34.171875 20.90625 36.109375 20.90625 36.109375 C 20.9375 36.042969 20.367188 37.140625 20.230469 37.40625 L 19.660156 38.273438 L 19.40625 38.5625 C 19.429688 38.535156 19.328125 38.640625 19.242188 38.730469 L 18.914063 38.933594 L 18.539063 39.046875 L 17.941406 39.113281 L 16.574219 39.121094 L 16.574219 8.5625 L 18.160156 8.570313 L 18.859375 8.648438 L 19.324219 8.789063 L 19.804688 9.066406 L 20.128906 9.304688 C 20.070313 9.253906 20.253906 9.417969 20.359375 9.511719 L 20.691406 9.882813 L 21.609375 11.203125 C 21.5625 11.121094 22.601563 12.875 22.601563 12.875 C 22.578125 12.832031 23.65625 14.8125 23.65625 14.8125 C 23.632813 14.765625 25.605469 18.765625 25.605469 18.765625 C 25.59375 18.746094 26.761719 21.257813 27.023438 21.820313 C 27.03125 21.84375 27.039063 21.867188 27.046875 21.890625 L 29.90625 28.683594 C 29.953125 28.796875 30.019531 28.90625 30.101563 29.003906 C 30.148438 29.058594 30.277344 29.207031 30.332031 29.253906 L 30.4375 29.34375 C 30.671875 29.542969 30.964844 29.652344 31.273438 29.652344 L 32.839844 29.652344 C 33.152344 29.652344 33.449219 29.542969 33.679688 29.339844 L 33.785156 29.246094 C 33.921875 29.128906 34.03125 28.980469 34.105469 28.816406 L 34.21875 28.570313 C 34.261719 28.484375 34.285156 28.394531 34.304688 28.300781 C 34.265625 28.484375 34.179688 28.65625 34.0625 28.8125 "/>
<path style=" stroke:none;fill-rule:nonzero;fill:#4f5461;fill-opacity:1;" d="M 58.285156 84.039063 L 58.210938 83.925781 C 58.078125 83.730469 57.890625 83.574219 57.675781 83.472656 L 57.472656 83.382813 C 57.378906 83.339844 57.285156 83.308594 57.1875 83.292969 L 55.691406 83 L 54.945313 82.734375 L 54.945313 4.53125 L 54.957031 4.527344 L 55.59375 4.292969 L 56.257813 4.171875 C 56.167969 4.183594 57.183594 4.066406 57.183594 4.066406 C 57.335938 4.050781 57.476563 4.007813 57.609375 3.941406 C 57.90625 3.792969 58.238281 3.484375 58.351563 3.171875 L 58.445313 2.910156 C 58.5 2.761719 58.523438 2.609375 58.523438 2.449219 L 58.503906 1.472656 C 58.496094 1.234375 58.425781 1.003906 58.292969 0.800781 L 58.21875 0.6875 C 58.144531 0.574219 58.054688 0.472656 57.949219 0.386719 L 57.839844 0.300781 C 57.609375 0.117188 57.332031 0.0195313 57.039063 0.0195313 L 40.007813 0.0195313 C 39.722656 0.0195313 39.449219 0.113281 39.222656 0.289063 L 39.109375 0.375 C 38.949219 0.5 38.824219 0.660156 38.738281 0.847656 L 38.625 1.089844 C 38.542969 1.257813 38.503906 1.441406 38.503906 1.628906 L 38.503906 2.476563 C 38.503906 2.652344 38.539063 2.820313 38.605469 2.980469 L 38.71875 3.246094 C 38.855469 3.558594 39.109375 3.808594 39.429688 3.933594 L 39.652344 4.019531 C 39.753906 4.058594 39.863281 4.085938 39.972656 4.097656 L 40.886719 4.203125 L 41.503906 4.359375 L 41.949219 4.550781 L 41.949219 82.75 L 41.886719 82.785156 L 41.277344 83.015625 L 40.414063 83.214844 C 40.421875 83.210938 39.832031 83.292969 39.832031 83.292969 C 39.628906 83.320313 39.4375 83.398438 39.273438 83.515625 L 39.15625 83.59375 C 39.046875 83.671875 38.953125 83.765625 38.871094 83.875 L 38.785156 83.988281 C 38.625 84.207031 38.535156 84.472656 38.535156 84.75 L 38.535156 85.992188 C 38.535156 86.292969 38.640625 86.585938 38.835938 86.820313 L 38.917969 86.917969 C 39.039063 87.058594 39.191406 87.171875 39.355469 87.25 L 39.609375 87.363281 C 39.777344 87.445313 39.960938 87.484375 40.148438 87.484375 L 57.039063 87.453125 C 57.332031 87.453125 57.613281 87.355469 57.839844 87.171875 L 57.949219 87.085938 C 58.125 86.945313 58.261719 86.757813 58.34375 86.546875 L 58.4375 86.296875 C 58.496094 86.144531 58.523438 85.980469 58.523438 85.816406 L 58.503906 84.726563 C 58.496094 84.480469 58.421875 84.242188 58.285156 84.039063 "/>
<path style=" stroke:none;fill-rule:nonzero;fill:#4f5461;fill-opacity:1;" d="M 121.210938 83.960938 C 121.082031 83.753906 120.898438 83.589844 120.679688 83.484375 L 120.488281 83.394531 C 120.390625 83.347656 120.285156 83.3125 120.179688 83.292969 L 118.667969 83 L 117.933594 82.738281 L 117.933594 4.523438 L 118.574219 4.292969 L 119.242188 4.171875 C 119.160156 4.183594 120.160156 4.066406 120.160156 4.066406 C 120.292969 4.050781 120.425781 4.015625 120.550781 3.957031 L 120.667969 3.902344 C 120.972656 3.757813 121.210938 3.503906 121.328125 3.1875 L 121.425781 2.921875 C 121.480469 2.769531 121.507813 2.605469 121.503906 2.441406 L 121.476563 1.464844 C 121.46875 1.242188 121.40625 1.027344 121.289063 0.835938 L 121.21875 0.722656 C 121.136719 0.582031 121.023438 0.457031 120.890625 0.363281 L 120.773438 0.273438 C 120.554688 0.109375 120.285156 0.0195313 120.011719 0.0195313 L 102.992188 0.0195313 C 102.710938 0.0195313 102.4375 0.113281 102.210938 0.28125 L 102.097656 0.371094 C 102.007813 0.441406 101.925781 0.523438 101.855469 0.617188 L 101.769531 0.730469 C 101.609375 0.941406 101.523438 1.195313 101.511719 1.457031 L 101.480469 2.4375 C 101.476563 2.550781 101.488281 2.660156 101.515625 2.769531 L 101.546875 2.902344 C 101.582031 3.054688 101.640625 3.195313 101.726563 3.320313 L 101.8125 3.449219 C 101.960938 3.671875 102.167969 3.839844 102.414063 3.933594 L 102.636719 4.019531 C 102.738281 4.058594 102.84375 4.085938 102.953125 4.097656 L 103.855469 4.203125 L 104.496094 4.363281 L 104.929688 4.546875 L 104.929688 82.753906 L 104.878906 82.78125 L 104.257813 83.015625 L 103.402344 83.214844 C 103.410156 83.210938 102.8125 83.292969 102.8125 83.292969 C 102.617188 83.320313 102.425781 83.394531 102.261719 83.511719 L 102.144531 83.589844 C 102.042969 83.664063 101.945313 83.753906 101.867188 83.855469 L 101.78125 83.964844 C 101.605469 84.191406 101.511719 84.46875 101.511719 84.75 L 101.511719 85.992188 C 101.511719 86.304688 101.625 86.605469 101.832031 86.835938 L 101.917969 86.933594 C 101.972656 86.996094 102.03125 87.054688 102.097656 87.101563 L 102.210938 87.191406 C 102.4375 87.363281 102.710938 87.453125 102.992188 87.453125 L 120.011719 87.453125 C 120.285156 87.453125 120.554688 87.363281 120.773438 87.199219 L 120.890625 87.113281 C 121 87.035156 121.089844 86.9375 121.167969 86.832031 C 121.324219 86.613281 121.476563 86.257813 121.476563 85.992188 L 121.476563 84.75 C 121.476563 84.511719 121.40625 84.273438 121.28125 84.070313 L 121.210938 83.960938 "/>
</g>
</svg>
