<?xml version="1.0" encoding="iso-8859-1"?>
<!-- Generator: Adobe Illustrator 21.0.0, SVG Export Plug-In . SVG Version: 6.00 Build 0)  -->
<svg version="1.1" id="Layer_16" xmlns="http://www.w3.org/2000/svg" xmlns:xlink="http://www.w3.org/1999/xlink" x="0px" y="0px"
	 viewBox="0 0 74 74" style="enable-background:new 0 0 74 74;" xml:space="preserve">
<path fill="#d3d3d3" d="M73,74H1c-0.553,0-1-0.447-1-1V1c0-0.553,0.447-1,1-1h72c0.553,0,1,0.447,1,1v72
	C74,73.553,73.553,74,73,74z M2,72h70V2H2V72z"/>
<path fill="#d3d3d3" d="M37,74c-0.553,0-1-0.447-1-1c0-19.299-15.701-35-35-35c-0.553,0-1-0.447-1-1s0.447-1,1-1
	c20.402,0,37,16.598,37,37C38,73.553,37.553,74,37,74z"/>
<path fill="#d3d3d3" d="M1,38c-0.553,0-1-0.447-1-1s0.447-1,1-1c19.299,0,35-15.701,35-35c0-0.553,0.447-1,1-1s1,0.447,1,1
	C38,21.402,21.402,38,1,38z"/>
<path fill="#d3d3d3" d="M37,38C16.598,38,0,21.402,0,1c0-0.553,0.447-1,1-1s1,0.447,1,1c0,19.299,15.701,35,35,35
	c0.553,0,1,0.447,1,1S37.553,38,37,38z"/>
<path fill="#d3d3d3" d="M1,74c-0.553,0-1-0.447-1-1c0-20.402,16.598-37,37-37c0.553,0,1,0.447,1,1s-0.447,1-1,1
	C17.701,38,2,53.701,2,73C2,73.553,1.553,74,1,74z"/>
<path fill="#d3d3d3" d="M73,74c-0.553,0-1-0.447-1-1c0-19.299-15.701-35-35-35c-0.553,0-1-0.447-1-1s0.447-1,1-1
	c20.402,0,37,16.598,37,37C74,73.553,73.553,74,73,74z"/>
<path fill="#d3d3d3" d="M37,38c-0.553,0-1-0.447-1-1s0.447-1,1-1c19.299,0,35-15.701,35-35c0-0.553,0.447-1,1-1s1,0.447,1,1
	C74,21.402,57.402,38,37,38z"/>
<path fill="#d3d3d3" d="M73,38C52.598,38,36,21.402,36,1c0-0.553,0.447-1,1-1s1,0.447,1,1c0,19.299,15.701,35,35,35
	c0.553,0,1,0.447,1,1S73.553,38,73,38z"/>
<path fill="#d3d3d3" d="M37,74c-0.553,0-1-0.447-1-1c0-20.402,16.598-37,37-37c0.553,0,1,0.447,1,1s-0.447,1-1,1
	c-19.299,0-35,15.701-35,35C38,73.553,37.553,74,37,74z"/>
<circle fill="#ec5242" cx="37" cy="27.781" r="3.359"/>
<circle fill="#ec5242" cx="37" cy="46.219" r="3.359"/>
</svg>
