<?xml version="1.0" encoding="UTF-8" standalone="no"?> <svg width="48" height="48" viewBox="0 0 48 48" fill="none" xmlns="http://www.w3.org/2000/svg">
<path d="M39.9503 12.0598C36.2354 8.5273 31.4242 6.37146 26.3153 5.95008C21.2063 5.5287 16.1069 6.86713 11.8635 9.74319C7.62003 12.6193 4.48772 16.86 2.98648 21.7615C1.48524 26.663 1.70534 31.9306 3.61025 36.6898C3.64025 36.7498 3.66025 36.8098 3.69025 36.8698C4.2864 38.2935 5.25699 39.5292 6.49896 40.4456C7.74092 41.362 9.2079 41.925 10.7441 42.0747C12.2803 42.2244 13.8284 41.9553 15.2239 41.296C16.6195 40.6366 17.8104 39.6116 18.6703 38.3298C20.4705 35.6233 23.0505 33.5276 26.0685 32.3204C29.0865 31.1132 32.4001 30.8514 35.5703 31.5698C37.0799 31.9063 38.6525 31.8268 40.1205 31.3397C41.5885 30.8526 42.8967 29.9763 43.9058 28.804C44.9148 27.6318 45.5867 26.2077 45.8499 24.6836C46.1131 23.1595 45.9577 21.5925 45.4003 20.1498C45.2703 19.7998 45.1303 19.4598 44.9803 19.1198C44.401 17.8332 43.7012 16.6044 42.8903 15.4498L39.9503 12.0598Z" fill="#EAEFF0"/>
<path d="M45.3999 20.1499C45.2699 19.7999 45.1299 19.4599 44.9799 19.1199C44.4006 17.8333 43.7009 16.6045 42.8899 15.4499L39.9499 12.0599C37.8946 10.1294 35.4973 8.59926 32.8809 7.54785C32.9569 8.35485 32.9999 9.17285 32.9999 9.99985C32.9999 16.8955 30.2606 23.5087 25.3847 28.3846C22.9704 30.799 20.1041 32.7141 16.9497 34.0207C13.7952 35.3273 10.4143 35.9999 6.99991 35.9999C5.74635 35.9986 4.49449 35.9077 3.25391 35.7279C3.36591 36.0489 3.48191 36.3698 3.60991 36.6898C3.63991 36.7498 3.65991 36.8099 3.68991 36.8699C4.28605 38.2936 5.25664 39.5293 6.49861 40.4457C7.74058 41.3621 9.20756 41.9251 10.7438 42.0748C12.28 42.2245 13.828 41.9554 15.2236 41.2961C16.6191 40.6367 17.8101 39.6117 18.6699 38.3299C20.4701 35.6234 23.0502 33.5277 26.0682 32.3205C29.0862 31.1133 32.3998 30.8515 35.5699 31.5699C37.0795 31.9064 38.6522 31.8269 40.1202 31.3398C41.5881 30.8527 42.8964 29.9763 43.9054 28.8041C44.9144 27.6319 45.5864 26.2078 45.8496 24.6837C46.1128 23.1596 45.9573 21.5926 45.3999 20.1499V20.1499Z" fill="#D9E1E2"/>
<path d="M10.5 32C12.433 32 14 30.433 14 28.5C14 26.567 12.433 25 10.5 25C8.567 25 7 26.567 7 28.5C7 30.433 8.567 32 10.5 32Z" fill="#D3241F"/>
<path d="M9.5 29C10.3284 29 11 28.3284 11 27.5C11 26.6716 10.3284 26 9.5 26C8.67157 26 8 26.6716 8 27.5C8 28.3284 8.67157 29 9.5 29Z" fill="#FD3730"/>
<path d="M15.5 20.5C17.433 20.5 19 18.933 19 17C19 15.067 17.433 13.5 15.5 13.5C13.567 13.5 12 15.067 12 17C12 18.933 13.567 20.5 15.5 20.5Z" fill="#FF9500"/>
<path d="M14.5 17.5C15.3284 17.5 16 16.8284 16 16C16 15.1716 15.3284 14.5 14.5 14.5C13.6716 14.5 13 15.1716 13 16C13 16.8284 13.6716 17.5 14.5 17.5Z" fill="#FAC100"/>
<path d="M28.5 18C30.433 18 32 16.433 32 14.5C32 12.567 30.433 11 28.5 11C26.567 11 25 12.567 25 14.5C25 16.433 26.567 18 28.5 18Z" fill="#00B157"/>
<path d="M27.5 15C28.3284 15 29 14.3284 29 13.5C29 12.6716 28.3284 12 27.5 12C26.6716 12 26 12.6716 26 13.5C26 14.3284 26.6716 15 27.5 15Z" fill="#00CF66"/>
<path d="M28.693 34.3997C29.0831 33.4684 29.8262 32.7295 30.7598 32.3449C31.6934 31.9603 32.7414 31.9612 33.6743 32.3476C34.6072 32.734 35.349 33.4742 35.7373 34.4063C36.1255 35.3384 36.1287 36.3863 35.746 37.3207C35.0832 38.8593 34.0251 40.1952 32.679 41.1926C31.333 42.19 29.747 42.8135 28.082 42.9997C29.543 39.4737 27.232 37.9257 28.693 34.3997Z" fill="#E67244"/>
<path d="M34.988 33.2407C34.9258 34.7878 34.268 36.251 33.152 37.3243C32.036 38.3975 30.5484 38.9979 29 38.9997C28.808 38.9997 28.619 38.9887 28.432 38.9707C28.7347 40.3176 28.6124 41.7252 28.082 42.9997C29.747 42.8135 31.333 42.19 32.679 41.1926C34.0251 40.1952 35.0832 38.8593 35.746 37.3207C36.027 36.6401 36.105 35.8926 35.9705 35.1686C35.836 34.4446 35.4948 33.775 34.988 33.2407Z" fill="#C6512B"/>
<path d="M44.9492 5.12966C45.3568 5.29653 45.6837 5.61505 45.8611 6.01814C46.0385 6.42123 46.0525 6.87743 45.9002 7.29066L37.9762 28.7997C37.8543 29.1307 37.6667 29.4338 37.4248 29.6906C37.1829 29.9474 36.8916 30.1527 36.5684 30.2942C36.2451 30.4356 35.8967 30.5104 35.5439 30.5139C35.1911 30.5174 34.8412 30.4497 34.5152 30.3147V30.3147C34.1897 30.1796 33.8948 29.9802 33.6482 29.7285C33.4015 29.4768 33.2082 29.178 33.0797 28.8498C32.9512 28.5216 32.8903 28.1709 32.9005 27.8187C32.9108 27.4664 32.9919 27.1198 33.1392 26.7997L42.7512 5.98866C42.9352 5.5888 43.267 5.27585 43.6769 5.11565C44.0868 4.95544 44.5429 4.96046 44.9492 5.12966V5.12966Z" fill="#8FA5A5"/>
<path d="M37.9761 28.7999L45.9001 7.29088C46.0527 6.87827 46.0394 6.42259 45.863 6.0196C45.6865 5.61661 45.3608 5.2977 44.9541 5.12988L34.5151 30.3189C34.8414 30.4538 35.1915 30.5214 35.5445 30.5176C35.8975 30.5138 36.2461 30.4387 36.5693 30.2968C36.8926 30.155 37.1838 29.9492 37.4256 29.692C37.6673 29.4348 37.8546 29.1313 37.9761 28.7999V28.7999Z" fill="#7B8C8C"/>
<path d="M45.8901 18.7078C45.3532 17.5354 44.7211 16.409 44.0001 15.3398L46.8351 7.63984C46.9708 7.3122 47.0407 6.96102 47.0407 6.60638C47.0407 6.25173 46.9709 5.90056 46.8352 5.57291C46.6994 5.24526 46.5005 4.94754 46.2498 4.69677C45.999 4.44599 45.7013 4.24707 45.3736 4.11134C45.046 3.97562 44.6948 3.90577 44.3402 3.90576C43.9855 3.90576 43.6343 3.97561 43.3067 4.11132C42.979 4.24703 42.6813 4.44595 42.4305 4.69672C42.1798 4.94749 41.9808 5.2452 41.8451 5.57284L39.6001 10.4308C36.4482 7.80479 32.6709 6.03809 28.6348 5.3022C24.5988 4.5663 20.4411 4.8862 16.5651 6.23084C13.6045 7.27543 10.8869 8.91036 8.57699 11.0365C6.26707 13.1627 4.41298 15.7358 3.12713 18.5998C1.79547 21.5144 1.06973 24.6691 0.993927 27.8726C0.91812 31.0761 1.49383 34.2615 2.68613 37.2358C3.30948 38.8325 4.36536 40.2239 5.73532 41.2541C7.10529 42.2842 8.73516 42.9123 10.4421 43.0678C10.7879 43.1045 11.1354 43.1228 11.4831 43.1228C13.0587 43.1288 14.6113 42.7447 16.0024 42.0047C17.3934 41.2647 18.5796 40.1918 19.4551 38.8818C21.1437 36.3421 23.5664 34.3775 26.4001 33.2498C27.1605 32.9489 27.9437 32.7088 28.7421 32.5318C28.3271 32.9621 27.9961 33.4661 27.7661 34.0178C27.1382 35.5549 27.0091 37.2504 27.3971 38.8648C27.721 40.1092 27.6358 41.4247 27.1541 42.6168C27.091 42.7691 27.0665 42.9346 27.0828 43.0987C27.0991 43.2627 27.1556 43.4202 27.2475 43.557C27.3393 43.6939 27.4636 43.806 27.6092 43.8832C27.7548 43.9605 27.9173 44.0005 28.0821 43.9998H28.1531C30.006 43.806 31.7732 43.1194 33.2709 42.0116C34.7687 40.9037 35.9424 39.4148 36.6701 37.6998C37.0186 36.8525 37.1179 35.9234 36.9565 35.0216C36.7952 34.1198 36.3798 33.2827 35.7591 32.6088C37.4231 32.9069 39.1365 32.7571 40.7235 32.1747C42.3105 31.5924 43.7142 30.5986 44.7906 29.2951C45.8669 27.9915 46.5773 26.4252 46.8489 24.7567C47.1205 23.0882 46.9435 21.3774 46.3361 19.7998C46.2001 19.4308 46.0521 19.0728 45.8901 18.7078ZM43.6581 6.40784C43.7144 6.28519 43.805 6.18142 43.9189 6.10903C44.0328 6.03664 44.1652 5.99873 44.3001 5.99984C44.3925 5.99957 44.484 6.01794 44.5691 6.05384C44.7374 6.12267 44.8722 6.25423 44.9452 6.4207C45.0182 6.58717 45.0235 6.77549 44.9601 6.94584L37.0371 28.4578C36.962 28.6628 36.8462 28.8504 36.6968 29.0094C36.5473 29.1684 36.3673 29.2956 36.1674 29.3832C35.9675 29.4709 35.752 29.5173 35.5338 29.5195C35.3156 29.5218 35.0991 29.4799 34.8975 29.3964C34.6959 29.3129 34.5132 29.1895 34.3605 29.0336C34.2078 28.8777 34.0882 28.6925 34.0088 28.4892C33.9295 28.2859 33.8921 28.0686 33.8988 27.8505C33.9056 27.6324 33.9564 27.4179 34.0481 27.2198L43.6581 6.40784ZM25.6631 31.3918C22.4508 32.6695 19.7044 34.8962 17.7901 37.7748C17.0195 38.9289 15.9456 39.848 14.6864 40.4313C13.4273 41.0145 12.0317 41.2393 10.6531 41.0808C9.30998 40.96 8.02705 40.4674 6.9482 39.6582C5.86934 38.8491 5.03722 37.7554 4.54513 36.4998C3.45225 33.7751 2.92418 30.8567 2.99294 27.9218C3.0617 24.9868 3.72585 22.0964 4.94513 19.4258C6.12042 16.8061 7.81562 14.4525 9.92789 12.5076C12.0402 10.5628 14.5255 9.06729 17.2331 8.11185C20.868 6.8526 24.7716 6.57889 28.5466 7.31857C32.3216 8.05826 35.8333 9.78493 38.7241 12.3228L32.2311 26.3818C31.9385 26.999 31.8309 27.6878 31.9214 28.3648C32.0119 29.0419 32.2966 29.6782 32.7411 30.1968C30.3238 30.0899 27.9113 30.4972 25.6631 31.3918ZM34.8221 36.9378C34.3514 38.0808 33.6282 39.1024 32.7065 39.9261C31.7848 40.7498 30.6886 41.3541 29.5001 41.6938C29.6437 40.6417 29.6021 39.5726 29.3771 38.5348C29.0541 37.2904 29.1392 35.9752 29.6201 34.7828C29.7582 34.4361 29.9637 34.1203 30.2248 33.8537C30.4859 33.5871 30.7974 33.3751 31.1412 33.2299C31.4849 33.0847 31.8541 33.0092 32.2273 33.0079C32.6004 33.0065 32.9701 33.0794 33.3149 33.2221C33.6597 33.3649 33.9727 33.5747 34.2357 33.8394C34.4987 34.1041 34.7065 34.4185 34.847 34.7642C34.9875 35.1099 35.0579 35.4801 35.0542 35.8532C35.0504 36.2264 34.9726 36.595 34.8251 36.9378H34.8221ZM43.1591 28.1378C42.4862 28.9377 41.652 29.5866 40.7112 30.042C39.7703 30.4975 38.7439 30.7492 37.6991 30.7808C38.2527 30.3668 38.6747 29.8014 38.9141 29.1528L43.1291 17.6998C43.4701 18.2998 43.7841 18.8998 44.0641 19.5258C44.2061 19.8478 44.3391 20.1688 44.4691 20.5178C44.9768 21.7842 45.1231 23.1666 44.8919 24.5112C44.6606 25.8558 44.0608 27.1099 43.1591 28.1338V28.1378Z" fill="black"/>
<path d="M10.5 24C9.60999 24 8.73996 24.2639 7.99994 24.7584C7.25991 25.2529 6.68314 25.9557 6.34254 26.7779C6.00195 27.6002 5.91283 28.505 6.08647 29.3779C6.2601 30.2508 6.68868 31.0526 7.31802 31.682C7.94736 32.3113 8.74918 32.7399 9.6221 32.9135C10.495 33.0872 11.3998 32.9981 12.2221 32.6575C13.0443 32.3169 13.7471 31.7401 14.2416 31.0001C14.7361 30.26 15 29.39 15 28.5C14.9987 27.3069 14.5241 26.1631 13.6805 25.3195C12.8369 24.4759 11.6931 24.0013 10.5 24V24ZM10.5 31C10.0055 31 9.5222 30.8534 9.11108 30.5787C8.69995 30.304 8.37952 29.9135 8.1903 29.4567C8.00108 28.9999 7.95158 28.4972 8.04804 28.0123C8.1445 27.5273 8.3826 27.0819 8.73223 26.7322C9.08187 26.3826 9.52732 26.1445 10.0123 26.048C10.4972 25.9516 10.9999 26.0011 11.4567 26.1903C11.9135 26.3795 12.304 26.7 12.5787 27.1111C12.8534 27.5222 13 28.0055 13 28.5C13 29.163 12.7366 29.7989 12.2678 30.2678C11.7989 30.7366 11.163 31 10.5 31Z" fill="black"/>
<path d="M15.5 12.5C14.61 12.5 13.74 12.7639 12.9999 13.2584C12.2599 13.7529 11.6831 14.4557 11.3425 15.2779C11.0019 16.1002 10.9128 17.005 11.0865 17.8779C11.2601 18.7508 11.6887 19.5526 12.318 20.182C12.9474 20.8113 13.7492 21.2399 14.6221 21.4135C15.495 21.5872 16.3998 21.4981 17.2221 21.1575C18.0443 20.8169 18.7471 20.2401 19.2416 19.5001C19.7361 18.76 20 17.89 20 17C19.9987 15.8069 19.5241 14.6631 18.6805 13.8195C17.8369 12.9759 16.6931 12.5013 15.5 12.5V12.5ZM15.5 19.5C15.0055 19.5 14.5222 19.3534 14.1111 19.0787C13.7 18.804 13.3795 18.4135 13.1903 17.9567C13.0011 17.4999 12.9516 16.9972 13.048 16.5123C13.1445 16.0273 13.3826 15.5819 13.7322 15.2322C14.0819 14.8826 14.5273 14.6445 15.0123 14.548C15.4972 14.4516 15.9999 14.5011 16.4567 14.6903C16.9135 14.8795 17.304 15.2 17.5787 15.6111C17.8534 16.0222 18 16.5055 18 17C18 17.663 17.7366 18.2989 17.2678 18.7678C16.7989 19.2366 16.163 19.5 15.5 19.5Z" fill="black"/>
<path d="M28.5 10C27.61 10 26.74 10.2639 25.9999 10.7584C25.2599 11.2529 24.6831 11.9557 24.3425 12.7779C24.002 13.6002 23.9128 14.505 24.0865 15.3779C24.2601 16.2508 24.6887 17.0526 25.318 17.682C25.9474 18.3113 26.7492 18.7399 27.6221 18.9135C28.495 19.0872 29.3998 18.9981 30.2221 18.6575C31.0443 18.3169 31.7471 17.7401 32.2416 17.0001C32.7361 16.26 33 15.39 33 14.5C32.9987 13.3069 32.5241 12.1631 31.6805 11.3195C30.8369 10.4759 29.6931 10.0013 28.5 10V10ZM28.5 17C28.0055 17 27.5222 16.8534 27.1111 16.5787C26.7 16.304 26.3795 15.9135 26.1903 15.4567C26.0011 14.9999 25.9516 14.4972 26.048 14.0123C26.1445 13.5273 26.3826 13.0819 26.7322 12.7322C27.0819 12.3826 27.5273 12.1445 28.0123 12.048C28.4972 11.9516 28.9999 12.0011 29.4567 12.1903C29.9135 12.3795 30.304 12.7 30.5787 13.1111C30.8534 13.5222 31 14.0055 31 14.5C31 15.163 30.7366 15.7989 30.2678 16.2678C29.7989 16.7366 29.163 17 28.5 17Z" fill="black"/>
</svg>
