<?xml version="1.0" ?><svg width="512px" height="512px" viewBox="0 0 512 512" style="enable-background:new 0 0 512 512;" version="1.1" xml:space="preserve" xmlns="http://www.w3.org/2000/svg" xmlns:xlink="http://www.w3.org/1999/xlink"><style type="text/css">
	.st0{display:none;}
	.st1{fill:#474747;}
</style><g class="st0" id="Layer_1"/><g id="Layer_2"><g><path class="st1" d="M461.5,201.37c-3.87,0-7,3.13-7,7v42.9c-0.12-0.09-0.26-0.17-0.39-0.25c-0.05-0.03-0.1-0.06-0.15-0.09    c-0.3-0.17-0.61-0.32-0.94-0.45c-0.07-0.03-0.14-0.05-0.21-0.08c-0.34-0.12-0.68-0.23-1.03-0.3l-22.85-4.46    c-0.57-0.11-1.15-0.15-1.72-0.12c-0.28,0.02-0.57,0.05-0.84,0.1c-1.39,0.25-2.7,0.91-3.73,1.94l-48.12,48.12h-14.21    c-1.86,0-3.64,0.74-4.95,2.05l-42.63,42.63h-31.31c-2.7,0-5.15,1.55-6.32,3.98l-6.94,14.51l-22.12-27.99    c-1.83-2.32-4.93-3.24-7.73-2.29l-39.44,13.29l-12.24-34.14c-0.24-0.68-0.59-1.32-1.02-1.88c-0.72-0.94-1.67-1.7-2.78-2.18    c-0.19-0.08-0.38-0.15-0.57-0.21c-1.63-0.55-3.4-0.48-4.99,0.21l-33.7,14.55c-3.33,1.44-4.97,5.15-3.9,8.53    c0.07,0.23,0.15,0.45,0.25,0.67c1.53,3.55,5.65,5.19,9.2,3.65l26.85-11.59l12.04,33.58c1.05,2.92,3.83,4.71,6.78,4.63    c0.68-0.02,1.37-0.14,2.05-0.36l41.28-13.91l23.32,29.52l-5.91,12.37l-12.24,25.61H57.5v-130.3l23.92,5.58l30.07,78.2    c0.1,0.27,0.23,0.53,0.36,0.78c0.03,0.06,0.07,0.13,0.11,0.19c0.11,0.2,0.23,0.39,0.36,0.57c0.04,0.05,0.07,0.11,0.11,0.16    c0.34,0.46,0.74,0.86,1.17,1.22c0.05,0.04,0.1,0.08,0.15,0.12c0.18,0.14,0.37,0.27,0.56,0.39c0.05,0.03,0.11,0.07,0.16,0.1    c0.24,0.14,0.49,0.27,0.75,0.38c0.03,0.01,0.06,0.02,0.08,0.03c0.23,0.1,0.47,0.18,0.72,0.26c0.06,0.02,0.13,0.04,0.19,0.05    c0.26,0.07,0.52,0.13,0.78,0.17c0.01,0,0.03,0.01,0.04,0.01c0,0,0.01,0,0.01,0c0.3,0.04,0.61,0.06,0.92,0.07c0.02,0,0.04,0,0.06,0    c0.04,0,0.08-0.01,0.12-0.01c0.19,0,0.38-0.01,0.57-0.03c0.08-0.01,0.15-0.02,0.23-0.03c0.17-0.02,0.35-0.05,0.52-0.09    c0.08-0.02,0.17-0.03,0.25-0.06c0.16-0.04,0.31-0.09,0.47-0.14c0.09-0.03,0.18-0.06,0.27-0.09c0.03-0.01,0.05-0.02,0.08-0.03    c0.14-0.05,0.26-0.12,0.39-0.17c0.07-0.03,0.15-0.06,0.22-0.1c0.46-0.23,0.89-0.51,1.28-0.83c0.04-0.04,0.09-0.08,0.13-0.11    c0.15-0.13,0.29-0.26,0.43-0.4c0.05-0.05,0.1-0.11,0.16-0.17c0.12-0.13,0.24-0.27,0.35-0.41c0.03-0.04,0.06-0.07,0.09-0.1    l7.16-9.4c2.34-3.08,1.75-7.47-1.33-9.81c-2.88-2.2-6.93-1.81-9.35,0.79l-26.91-69.99c-0.83-2.17-2.68-3.78-4.94-4.3l-30.71-7.17    v-92.37l21.88,16.23c1.21,0.89,2.67,1.38,4.17,1.38h41.48l18.44,63.02c0.78,2.66,3.06,4.61,5.81,4.97l32.95,4.32    c0.62,0.88,1.23,1.76,1.85,2.64c7.35,10.5,14.62,21.08,18.07,26.38c0.89,1.36,1.52,2.38,1.84,2.95c1.63,4.54,6.47,5.32,14.92,6.69    c4.39,0.71,10.23,1.52,17.4,2.43c1.02,0.13,2.08,0.26,3.15,0.39c11.07,1.37,22.2,2.59,27.01,3.11l18.8,18.68    c2.74,2.72,7.17,2.71,9.9-0.03c2.73-2.74,2.71-7.17-0.03-9.9l-2.99-2.97c0,0,0,0,0,0l-17.56-17.45c-1.13-1.13-2.62-1.83-4.2-2    c-20.39-2.14-42.97-4.91-52.49-6.63c-0.33-0.06-0.64-0.12-0.94-0.17c-0.59-0.11-1.12-0.22-1.58-0.32    c-2.53-4.18-8.57-13.25-23.46-34.38c-1.13-1.6-2.87-2.65-4.81-2.91l-14.64-1.92c0,0,0,0-0.01,0l-16.83-2.21L137,182.5    c-0.87-2.98-3.61-5.03-6.72-5.03H85.86l-31.19-23.13c-2.12-1.57-4.95-1.82-7.32-0.63c-2.36,1.19-3.85,3.61-3.85,6.25v111.83    v146.12c0,3.87,3.13,7,7,7h197.22H461.5c3.87,0,7-3.13,7-7V270.26v-61.89C468.5,204.5,465.37,201.37,461.5,201.37z M258.83,410.91    l27.02-56.54h29.8c0.23,0,0.46-0.01,0.68-0.03c0.01,0,0.01,0,0.02,0c0.1-0.01,0.2-0.03,0.3-0.04c0.12-0.02,0.24-0.03,0.36-0.05    c0.01,0,0.01,0,0.02,0c0.12-0.02,0.23-0.06,0.34-0.08c0.1-0.03,0.21-0.05,0.31-0.08c0,0,0.01,0,0.01,0    c0.11-0.03,0.22-0.08,0.33-0.12c0.1-0.04,0.2-0.07,0.31-0.11c0,0,0.01,0,0.01,0c0.1-0.04,0.2-0.09,0.3-0.14    c0.1-0.05,0.21-0.09,0.31-0.15c0,0,0.01,0,0.01-0.01c0.09-0.05,0.18-0.11,0.28-0.16c0.1-0.06,0.2-0.11,0.3-0.18    c0.01,0,0.01-0.01,0.02-0.01c0.1-0.07,0.19-0.14,0.29-0.21c0.08-0.06,0.17-0.12,0.25-0.18c0,0,0.01-0.01,0.01-0.01    c0.15-0.12,0.29-0.25,0.43-0.39c0.03-0.02,0.05-0.05,0.08-0.07l42.63-42.63h14.21c1.86,0,3.64-0.74,4.95-2.05l47.53-47.54    l16.75,3.27l7.84,9.42v138.12H258.83z"/><path class="st1" d="M467.96,183.16c-0.17-0.42-0.39-0.83-0.64-1.21c-0.25-0.38-0.55-0.74-0.87-1.06    c-1.63-1.63-4.04-2.38-6.32-1.92c-0.44,0.09-0.89,0.23-1.31,0.4c-0.42,0.18-0.83,0.39-1.21,0.65c-0.38,0.25-0.74,0.54-1.06,0.87    c-0.32,0.32-0.61,0.68-0.87,1.06c-0.25,0.38-0.47,0.79-0.64,1.21c-0.18,0.42-0.31,0.86-0.4,1.31c-0.09,0.45-0.14,0.91-0.14,1.37    c0,0.45,0.05,0.91,0.14,1.36c0.09,0.45,0.22,0.89,0.4,1.31c0.17,0.43,0.39,0.83,0.64,1.21c0.26,0.38,0.55,0.74,0.87,1.07    c1.3,1.3,3.11,2.05,4.95,2.05c0.46,0,0.92-0.05,1.37-0.14c0.44-0.09,0.88-0.23,1.31-0.4c0.42-0.18,0.83-0.39,1.21-0.64    c0.38-0.26,0.74-0.55,1.06-0.87c0.32-0.33,0.62-0.69,0.87-1.07s0.47-0.78,0.64-1.21c0.18-0.42,0.31-0.86,0.4-1.31    c0.09-0.45,0.14-0.91,0.14-1.36c0-0.46-0.05-0.92-0.14-1.37S468.14,183.58,467.96,183.16z"/><path class="st1" d="M464.9,97.93l-17.95-9.96c-2.44-1.35-5.45-1.13-7.66,0.57l-31.04,23.83h-13.71c-1.93,0-3.78,0.8-5.1,2.21    l-21.67,23.06h-45.23c-1.4,0-2.78,0.42-3.94,1.21l-36.15,24.59l-33.93-3.88c-2.5-0.29-4.97,0.8-6.45,2.83l-43.91,60.25    c-2.28,3.12-1.59,7.5,1.53,9.78c1.24,0.91,2.69,1.34,4.12,1.34c2.16,0,4.29-1,5.66-2.88l41.51-56.96l32.46,3.71    c1.67,0.19,3.35-0.22,4.73-1.17l36.52-24.84h46.1c1.93,0,3.78-0.8,5.1-2.21l21.67-23.06h13.06c1.54,0,3.04-0.51,4.26-1.45    l29.29-22.48l10.33,5.73v52.41c0,3.87,3.13,7,7,7s7-3.13,7-7v-56.53C468.5,101.51,467.12,99.16,464.9,97.93z"/></g></g></svg>