<svg xmlns="http://www.w3.org/2000/svg" height="800" width="1200" viewBox="-150.00015 -73.461 1300.0013 440.766" fill="#4f5461">
  <path d="M0 293.844V0h205.045v293.844zm175.374-29.601V29.599H29.526v234.644z" fill="#4f5461"/>
  <path d="M341.288 131.799h-12.686c-16.626-23.508-33.183-46.872-49.666-73.317v73.317h-14.332V29.527h12.684c16.628 23.364 33.183 46.585 49.523 72.888V29.527h14.334v102.272zm33.255-40.421c4.085-13.402 8.17-25.873 11.825-41.639 4.085 15.767 7.741 28.237 11.539 41.639zm6.736-61.779l-35.405 102.2h15.195l8.886-27.879h30.818l8.026 27.879h19.566L396.042 29.527H381.71zm63.714 102.2V43.288h-26.877V29.599h71.097v13.689h-26.875v88.511h-17.559zm50.169 0V29.527h17.415v102.272zm71.382-13.044c-18.275 0-24.726-20.139-24.726-39.705s7.167-36.838 24.726-36.838c17.56 0 24.655 17.99 24.655 36.838 0 18.85-6.379 39.705-24.655 39.705zm0 14.334c26.732 0 43.359-23.793 43.359-54.325 0-28.667-18.419-51.458-43.359-51.458s-43.36 22.791-43.36 51.458c0 30.96 16.629 54.827 43.36 54.827zm130.51-1.29h-12.686c-16.626-23.508-33.183-46.872-49.666-73.317v73.317h-14.333V29.527h12.685c16.627 23.364 33.183 46.585 49.522 72.888V29.527h14.334v102.272zm33.469-40.421c4.086-13.402 8.171-25.873 11.825-41.639 4.085 15.767 7.739 28.237 11.54 41.639h-23.652zm6.737-61.779l-35.333 102.272h15.194l8.887-27.88h30.818l8.026 27.88h19.566l-32.61-102.272h-14.334zm52.246-.072h17.417v88.511h34.616v13.761h-52.033zM330.465 217.373v42.212a80.478 80.478 0 01-29.096 6.307c-30.102 0-49.096-23.364-49.096-53.464 0-27.881 18.994-52.318 49.668-52.318a43.71 43.71 0 0124.798 7.883l-5.662 12.112a37.982 37.982 0 00-18.704-5.374c-18.707 0-31.393 14.764-31.393 37.984 0 23.22 14.333 38.558 29.672 38.558 4.229.183 8.438-.68 12.254-2.509v-31.391zm62.712-41.785h-29.241v28.024h28.667v13.761h-28.667v33.039h34.473v13.76h-52.031V161.758h46.729v13.76zm54.038 75.684c-18.275 0-24.654-20.14-24.654-39.704 0-19.566 7.167-36.839 24.654-36.839 17.488 0 24.727 17.989 24.727 36.839-.001 18.848-6.451 39.704-24.727 39.704zm0 14.334c26.732 0 43.36-23.795 43.36-54.325 0-28.667-18.419-51.458-43.36-51.458-24.939 0-43.358 22.791-43.358 51.458 0 30.817 16.626 54.611 43.358 54.611zm127.571-48.233v42.212a80.489 80.489 0 01-29.098 6.307c-30.101 0-49.094-23.364-49.094-53.464 0-27.881 18.993-52.318 49.668-52.318a43.71 43.71 0 0124.797 7.883l-5.661 12.112a37.994 37.994 0 00-18.707-5.374c-18.705 0-31.391 14.764-31.391 37.984 0 23.22 14.334 38.558 29.671 38.558 4.229.183 8.438-.68 12.256-2.509v-31.391zm33.612-41.785h7.741c8.153-.807 15.417 5.148 16.225 13.303a14.846 14.846 0 01-.027 3.182c1.29 9.852-5.652 18.883-15.503 20.172-.373.048-.748.086-1.125.111l-7.167.43v-37.269zm44.436 88.514l-20.283-42.357a34.4 34.4 0 0017.703-30.388c0-19.853-12.113-29.527-31.678-29.527H591.27v102.272h17.559v-38.56h7.884l16.482 38.56h19.998z"/><path d="M681.717 223.68c4.085-13.402 8.17-25.873 11.826-41.641 4.085 15.768 7.739 28.166 11.537 41.641h-23.649zm6.736-61.922l-35.332 102.271h15.266l8.887-27.881h30.816l8.027 27.881h19.566l-32.609-102.271h-14.333zm80.27 0h-27.306v102.271h17.559v-38.487h7.885c18.444.124 33.497-14.728 33.62-33.173.004-.338 0-.676-.008-1.013-.287-19.853-12.4-29.598-31.75-29.598zm-2.509 50.525l-7.167.43v-37.195h7.884c8.161-.727 15.367 5.299 16.095 13.459.09 1.008.075 2.021-.041 3.024 1.32 9.888-5.625 18.972-15.513 20.291-.488.065-.979.11-1.472.136zm115.244 51.819h-17.559v-49.237h-36.408v49.237h-17.415V161.758h17.415v39.273h36.408v-38.988h17.559v101.986zm16.772 0V161.758h17.415v102.271H898.23zm96.251-83.71a36.816 36.816 0 00-17.989-5.661c-17.847 0-30.818 14.762-30.818 37.982s14.335 38.559 31.249 38.559a33.128 33.128 0 0017.559-5.088l4.802 12.686a44.582 44.582 0 01-23.077 7.166c-30.102 0-49.093-23.364-49.093-53.466 0-27.878 18.848-52.317 49.379-52.317a42.994 42.994 0 0123.508 7.884z" fill="#4f5461"/>
</svg>