<?xml version='1.0' encoding='iso-8859-1'?>
<!DOCTYPE svg PUBLIC '-//W3C//DTD SVG 1.1//EN' 'http://www.w3.org/Graphics/SVG/1.1/DTD/svg11.dtd'>
<svg version="1.1" xmlns="http://www.w3.org/2000/svg" viewBox="0 0 476.005 476.005" xmlns:xlink="http://www.w3.org/1999/xlink" enable-background="new 0 0 476.005 476.005">
  <g>
    <path d="m318.819,343.218c0.43,0 0.917,0.087 1.447,0.259 24.018,7.807 47.771,14.813 74.263,14.813 2.713,0 5.451-0.076 8.137-0.226l.304-.021c10.908-0.942 18.504-7.107 21.373-17.299 3.335-11.577 7.733-60.396 7.016-72.207l-.022-.293c-0.829-9.178-7.532-15.588-16.301-15.588-2.858,0-5.802,0.723-8.474,2.073-27.625,13.798-57.291,17.282-85.308,19.669-1.798,0.153-3.547,0.23-5.197,0.231-11.846,0-17.403-4.066-17.43-6.814-0.016-1.652 2.288-4.022 7.46-4.121 42.402-0.81 74.73-7.309 104.812-21.073 10.626-4.706 14.731-14.134 11.249-25.93-6.224-20.681-15.627-41.017-27.978-60.485-3.692-5.753-9.392-9.051-15.64-9.051-4.698,0-9.251,1.819-13.227,5.312-18.288,16.328-40.408,27.384-62.284,31.129-0.56,0.096-1.107,0.145-1.625,0.145-2.472,0.001-3.951-1.097-4.322-2.185-0.461-1.355 1.255-2.86 2.015-3.445 3.148-2.422 9.956-5.918 17.163-9.619 12.452-6.394 27.948-14.352 41.482-24.783 4.529-3.433 7.366-8.313 7.989-13.741 0.635-5.524-1.135-11.259-4.854-15.735l-.083-.099c-11.141-13.058-14.337-16.562-25.967-27.416l-.163-.149c-3.762-3.359-8.21-5.134-12.863-5.134-5.555,0-10.941,2.613-15.227,7.427-6.352,7.266-13.216,13.186-20.403,17.596-4.331,2.659-7.677,3.217-9.721,3.217-2.768,0-4.033-1.009-4.181-1.377-0.163-0.406 0.258-2.353 3.055-5.028 3.515-3.362 6.668-5.667 10.007-8.107 4.303-3.145 8.752-6.396 13.56-11.664 3.857-4.266 5.773-9.641 5.396-15.134-0.371-5.409-3.004-10.544-7.223-14.087l-.133-.11c-3.995-3.239-7.892-6.366-11.658-9.387-17.123-13.736-31.91-25.598-39.453-35.024l-7.808-9.757-7.808,9.757c-7.543,9.426-22.33,21.289-39.451,35.024-3.766,3.021-7.663,6.147-11.658,9.387l-.133,.11c-4.219,3.543-6.852,8.678-7.223,14.087-0.377,5.493 1.539,10.868 5.427,15.168 4.776,5.234 9.226,8.486 13.529,11.63 3.339,2.44 6.492,4.745 10.008,8.107 2.795,2.674 3.216,4.62 3.053,5.026-0.148,0.368-1.413,1.378-4.182,1.378-2.042,0-5.387-0.558-9.721-3.218-7.186-4.41-14.05-10.33-20.462-17.664-4.226-4.745-9.612-7.358-15.167-7.358-4.653,0-9.101,1.775-12.863,5.134l-.163,.149c-11.629,10.854-14.826,14.358-25.967,27.416l-.083,.099c-3.719,4.476-5.489,10.211-4.854,15.735 0.623,5.428 3.46,10.308 7.927,13.693 13.597,10.479 29.093,18.437 41.545,24.831 7.207,3.701 14.015,7.197 17.163,9.62 0.759,0.584 2.475,2.088 2.014,3.443-0.37,1.088-1.85,2.187-4.322,2.187-0.517,0-1.063-0.049-1.624-0.145-21.876-3.746-43.996-14.801-62.343-31.182-3.916-3.441-8.469-5.259-13.167-5.259-6.248,0-11.948,3.299-15.669,9.096-12.322,19.424-21.725,39.759-27.964,60.49-3.468,11.746 0.637,21.174 11.264,25.88 30.082,13.765 62.41,20.264 104.812,21.073 4.691,0.09 7.475,2.164 7.456,4.118-0.026,2.749-5.582,6.816-17.427,6.817-1.647,0-3.396-0.078-5.196-0.231-28.018-2.386-57.683-5.871-85.27-19.65-2.711-1.369-5.654-2.092-8.513-2.092-8.77,0-15.473,6.41-16.301,15.588l-.022,.293c-0.717,11.811 3.68,60.629 6.999,72.148 2.886,10.251 10.482,16.416 21.39,17.358l.304,.021c2.686,0.15 5.424,0.226 8.137,0.226 26.492,0 50.245-7.007 74.263-14.813 0.53-0.172 1.017-0.259 1.447-0.259 1.633,0 1.977,1.395 2.03,1.675 0.38,2.025-2.143,4.466-6.277,6.074-16.065,6.248-40.358,12.924-60.357,12.925-1.356,0-2.693-0.031-3.976-0.093-0.312-0.015-0.62-0.022-0.92-0.022-6.263,0-11.563,3.134-14.176,8.384-2.754,5.533-1.932,12.322 2.146,17.72l.148,.191c20.999,26.433 52.742,41.592 87.09,41.593 0.001,0 0.001,0 0.001,0 13.723,0 26.857-2.433 37.979-7.036 13.539-5.6 21.847-14.273 27.13-23.633v75.009h20v-74.998c5.284,9.355 13.589,18.025 27.123,23.622 11.125,4.603 24.258,7.036 37.982,7.036 34.349,0 66.092-15.16 87.09-41.593l.148-.191c4.078-5.397 4.9-12.186 2.146-17.72-2.613-5.25-7.912-8.384-14.175-8.384-0.301,0-0.608,0.007-0.922,0.022-1.28,0.062-2.617,0.093-3.975,0.093-19.997,0-44.29-6.677-60.356-12.925-4.134-1.608-6.656-4.049-6.276-6.074 0.053-0.279 0.397-1.675 2.029-1.675zm-3.002,26.389c8.193,3.187 36.025,13.228 63.367,14.208-22.735,24.059-50.725,27.85-66.074,27.85-10.965,0-21.738-1.959-30.337-5.517-19.761-8.172-22.444-25.81-24.812-41.371-0.94-6.179-1.752-11.517-3.625-16.073-4.189-10.189-12.032-11.711-16.333-11.711-4.302,0-12.145,1.522-16.333,11.711-1.874,4.556-2.686,9.894-3.626,16.073-2.368,15.561-5.051,33.198-24.814,41.371-8.597,3.558-19.37,5.517-30.334,5.517-15.35,0-43.34-3.792-66.075-27.85 27.345-0.981 55.175-11.022 63.368-14.208 16.519-6.424 20.39-19.315 18.685-28.401-1.955-10.423-11.076-17.987-21.687-17.987-2.533,0-5.099,0.417-7.628,1.239-22.431,7.29-44.516,13.834-68.082,13.834-2.289,0-4.596-0.063-6.861-0.185-2.859-0.266-3.175-0.91-3.735-2.897-2.347-8.148-5.875-45.374-6.285-60.615 29.506,13.737 59.835,17.294 88.459,19.732 2.36,0.201 4.678,0.303 6.888,0.303 0.002,0 0.005,0 0.007,0 10.962-0.001 19.916-2.409 26.613-7.156 6.799-4.819 10.74-11.917 10.811-19.472 0.109-11.529-9.342-23.965-27.074-24.304-39.555-0.755-69.451-6.705-96.934-19.292l-.139-.063c-0.235-0.104-0.424-0.197-0.574-0.278 0.043-0.355 0.142-0.883 0.356-1.61 5.596-18.593 14.028-36.928 25.045-54.474 20.923,18.468 46.303,31.004 71.558,35.328 1.672,0.287 3.354,0.432 4.999,0.432 10.707,0 20.053-6.327 23.256-15.745 3.16-9.289-0.193-19.149-8.75-25.735-4.59-3.532-11.489-7.075-20.224-11.561-11.727-6.022-26.322-13.517-38.536-22.929-0.085-0.064-0.143-0.117-0.183-0.157 0.035-0.119 0.124-0.323 0.321-0.567 10.445-12.241 13.321-15.406 23.758-25.164 0.042,0.044 0.086,0.091 0.131,0.142 7.681,8.786 16.092,16.012 24.998,21.478 6.579,4.039 13.558,6.173 20.184,6.172 10.58-0.001 19.294-5.339 22.742-13.931 3.536-8.813 0.624-18.878-7.79-26.926-4.472-4.277-8.488-7.212-12.032-9.802-3.827-2.797-7.133-5.213-10.525-8.931-0.189-0.209-0.264-0.347-0.28-0.33 0.008-0.018 0.036-0.072 0.108-0.139 3.93-3.186 7.765-6.262 11.47-9.235 14.072-11.29 25.929-20.801 34.743-29.55 8.814,8.749 20.671,18.26 34.743,29.55 3.706,2.973 7.54,6.05 11.471,9.236 0.052,0.047 0.081,0.086 0.096,0.094-0.029,0.065-0.102,0.19-0.237,0.34-3.423,3.751-6.729,6.167-10.556,8.964-3.544,2.59-7.56,5.525-12.031,9.802-8.415,8.049-11.328,18.116-7.791,26.929 3.448,8.592 12.163,13.929 22.744,13.928 6.626-0.001 13.605-2.135 20.181-6.172 8.907-5.466 17.318-12.692 24.938-21.409 0.068-0.077 0.133-0.146 0.194-0.209 10.436,9.756 13.311,12.922 23.756,25.162 0.196,0.243 0.285,0.447 0.32,0.566-0.047,0.046-0.124,0.115-0.245,0.206-12.151,9.364-26.746,16.859-38.473,22.881-8.735,4.486-15.634,8.029-20.224,11.561-8.559,6.587-11.912,16.449-8.751,25.738 3.205,9.417 12.551,15.743 23.258,15.742 1.645,0 3.327-0.146 4.998-0.432 25.279-4.328 50.681-16.883 71.558-35.328 11.03,17.576 19.453,35.895 25.029,54.424 0.224,0.756 0.325,1.299 0.371,1.661-0.15,0.081-0.338,0.175-0.573,0.278l-.139,.063c-27.483,12.587-57.379,18.537-96.934,19.292-17.734,0.338-27.187,12.776-27.077,24.308 0.072,7.556 4.014,14.653 10.813,19.471 6.698,4.746 15.652,7.152 26.615,7.152 2.214-0.001 4.534-0.102 6.894-0.303 28.604-2.436 58.911-5.991 88.46-19.733-0.411,15.241-3.94,52.475-6.302,60.674-0.543,1.93-0.859,2.573-3.718,2.839-2.265,0.123-4.573,0.185-6.861,0.185-23.565,0-45.651-6.544-68.082-13.834-2.529-0.822-5.096-1.239-7.628-1.239-10.61,0-19.73,7.564-21.686,17.987-1.704,9.088 2.166,21.978 18.684,28.402z" fill="#d3d3d3"/>
  </g>
</svg>
