<?xml version="1.0" encoding="utf-8"?>
<!-- Generator: Adobe Illustrator 19.2.1, SVG Export Plug-In . SVG Version: 6.00 Build 0)  -->
<svg version="1.1" id="layer" xmlns="http://www.w3.org/2000/svg" xmlns:xlink="http://www.w3.org/1999/xlink" x="0px" y="0px"
	 viewBox="0 0 652 652" style="enable-background:new 0 0 652 652;" xml:space="preserve">
<style type="text/css">
	.st0{clip-path:url(#SVGID_2_);fill:url(#SVGID_3_);}
</style>
<g>
	<defs>
		<path id="SVGID_1_" d="M270.8,549.2c0.3-5.9,3.1-9.3,7.6-9.1c2.4,0.1,4.4,1.7,5.5,3.2l-0.5,12.6c-1.1,1.4-3.2,2.9-5.5,2.9
			c-0.1,0-0.2,0-0.2,0C273.2,558.6,270.5,555,270.8,549.2 M265.8,549c-0.4,8.7,3.6,13.8,10.1,14.1c3.1,0.1,5.9-1.1,7.5-3.1
			c0.4,2.6,1.9,3.6,4.3,3.7c1.7,0.1,3.4-0.4,4.5-1.1l-0.1-4c-0.8,0.5-1.6,0.9-2.4,0.9c-1.3-0.1-1.7-1.1-1.6-2.9l0.9-19.9l-4.8-0.2
			l-0.1,2.4c-1.5-2-4.3-3.1-6.8-3.2c-0.2,0-0.4,0-0.6,0C270.2,535.7,266.2,540.8,265.8,549 M303.7,555.6l-1.3-13
			c1-1.6,3-3.1,5.4-3.4c4.4-0.4,7.5,2.8,8,8.5c0.6,5.9-1.8,9.7-6.2,10.1c-0.2,0-0.4,0-0.7,0C306.9,557.9,304.9,556.8,303.7,555.6
			 M308.9,534.8c-3.3,0.3-5.7,1.9-7.1,4.1c-0.8-2.3-2.4-3.2-4.8-2.9c-1.7,0.2-3.4,0.9-4.4,1.6l0.7,4c0.6-0.6,1.4-1.1,2.1-1.2
			c1.5-0.2,1.9,0.9,2.1,2.7l2.8,29.2l4.9-0.5l-1.1-11.9c1.8,1.6,4.4,2.5,7.4,2.2c6.3-0.6,10.1-6,9.3-14.7
			c-0.8-8.2-5.1-12.7-10.8-12.7C309.6,534.7,309.3,534.7,308.9,534.8 M333.9,551.3l-3-12.7c0.7-1.7,2.5-3.5,4.8-4.1
			c4.3-1,7.8,1.8,9.1,7.4c1.4,5.7-0.5,9.8-4.8,10.8c-0.5,0.1-1,0.2-1.5,0.2C336.7,552.9,335,552.2,333.9,551.3 M336.1,529.9
			c-3.2,0.8-5.4,2.7-6.4,5c-1.1-2.1-2.9-2.8-5.1-2.3c-1.6,0.4-3.3,1.4-4.1,2.2l1.3,3.8c0.6-0.7,1.2-1.3,1.9-1.4
			c1.4-0.3,2,0.7,2.4,2.4l6.8,28.6l4.8-1.1l-2.8-11.6c2,1.3,4.7,1.9,7.6,1.2c6.2-1.5,9.2-7.3,7.2-15.8c-1.7-7.3-6-11.3-11.1-11.3
			C337.8,529.6,337,529.7,336.1,529.9 M350.3,526.4l7,20.5c1.2,3.6,3.3,4.6,6.4,3.6c1.7-0.6,3-1.6,3.7-2.6l-1.5-3.6
			c-0.5,0.8-1.1,1.3-1.9,1.6c-1.1,0.4-1.8-0.1-2.4-1.7l-6.6-19.3L350.3,526.4z M210.3,531.8c1.8-4,5.2-5.9,9-4.4
			c3.4,1.4,4.3,4.3,3,7.5c-0.2,0.5-0.5,1-0.8,1.5L210.3,531.8z M204.7,532c-3,7.4-1.8,14.3,5.8,17.3c3.8,1.5,7.2,1.5,10.2,0.5
			l-0.4-4.2c-2.2,0.8-4.8,1.2-7.6,0.1c-5-2-5.8-5.9-4.2-10.4l15.2,6.1c0.9-1.2,1.7-2.7,2.4-4.3c2.2-5.5,1.3-11.1-5.3-13.7
			c-1.5-0.6-2.9-0.9-4.3-0.9C211.5,522.6,207.1,526.2,204.7,532 M236.4,557.1l4.8,0.9l3.2-16.8c1.3-2.5,3.7-4.7,6.7-4.1
			c3.4,0.7,4.8,3.2,4,7.6l-2,10.6c-0.7,3.7,0.5,5.6,3.8,6.3c1.7,0.3,3.3,0.1,4.5-0.4l0.4-3.9c-0.9,0.4-1.6,0.6-2.5,0.5
			c-1.2-0.2-1.6-1-1.2-2.7l1.9-10.2c1.2-6.5-0.7-10.7-6.3-11.8c-3.5-0.7-6.4,0.2-8.3,2.4l2.4-12.7l-4.8-0.9L236.4,557.1z
			 M372.8,517.1c-3.2,1.4-5.1,3.8-5.4,6.7l-1.4-3.1l-4.4,2l10.8,24.2l4.4-2l-7-15.6c-0.4-2.8,0.4-6,3.2-7.2c3.2-1.4,5.8-0.1,7.6,3.9
			l4.4,9.8c1.5,3.5,3.6,4.3,6.7,2.9c1.6-0.7,2.8-1.8,3.4-2.9l-1.9-3.4c-0.5,0.8-1,1.4-1.7,1.8c-1.1,0.5-1.8,0.1-2.6-1.5l-4.3-9.5
			c-2-4.5-4.7-7-8.2-7C375.4,516.3,374.1,516.6,372.8,517.1 M349.3,515.7c-1.8,0.6-2.7,1.7-2,3.7c0.7,2,2.1,2.4,3.9,1.7
			c1.7-0.6,2.5-1.7,1.8-3.7c-0.5-1.4-1.3-2-2.4-2C350.2,515.5,349.7,515.5,349.3,515.7 M191.3,514.5c0.9-0.1,1.8-0.1,2.4,0.3
			c1.3,0.7,1,1.9,0.1,3.4l-9.9,17.3l4.3,2.4l8-14c2.4-2.7,4.7-4.5,7.3-3c1.3,0.7,2.2,1.8,2.7,3.1l2.9-3.5c-0.4-1.3-1.4-2.5-2.9-3.3
			c-2.5-1.5-4.6-1.2-6.8,0.4c0.8-2.5,0.1-4.3-2-5.5c-1.4-0.8-3.3-1.2-4.5-1.2L191.3,514.5z M396.9,508.9c3.1-1.9,6-0.8,7.8,2.1
			c0.3,0.5,0.5,1,0.7,1.5l-10.4,6.3C392.9,514.9,393.3,511.1,396.9,508.9 M394.7,505.3c-6.2,3.7-7,11.2-2.8,18.1
			c4.1,6.9,10.3,10,17.3,5.8c3.5-2.1,5.6-4.8,6.5-7.9l-3.6-2.2c-0.7,2.3-2,4.6-4.5,6.1c-4.6,2.8-8.2,1-10.8-2.9l14-8.5
			c-0.5-1.4-1.1-3-2-4.5c-2.1-3.4-5.1-5.7-8.6-5.7C398.4,503.6,396.6,504.1,394.7,505.3 M172.8,508.6c2.8-3.4,6.6-4.4,9.9-1.9
			c2.9,2.2,3,5.3,0.9,8c-0.3,0.5-0.7,0.9-1.1,1.2L172.8,508.6z M167.3,507.4c-4.8,6.4-5.5,13.3,1,18.3c3.3,2.5,6.6,3.4,9.7,3.2
			l0.7-4.1c-2.4,0.2-5-0.1-7.3-2c-4.3-3.2-4-7.3-1.3-11.2l13,9.9c1.2-1,2.4-2.1,3.4-3.5c3.6-4.7,4.1-10.3-1.5-14.6
			c-2.1-1.6-4.4-2.3-6.7-2.3C174.5,501,170.5,503.3,167.3,507.4 M412.8,493.2c-4.8,3.7-5.5,8.6-2.7,12.2c2.2,2.8,5,3.4,8.6,2.1
			l4-1.5c2-0.7,3.5-1,4.8,0.7c1.3,1.7,1.1,3.9-1.3,5.7c-2.3,1.7-5.2,2.3-7.1,2.5l1.9,4.1c1.9-0.3,5.1-1.3,8-3.5
			c4.7-3.5,4.9-8.5,2.2-12.1c-2.2-2.8-5-3.4-8.5-2.1l-3.8,1.5c-2.5,1-3.7,0.9-4.8-0.4c-1.4-1.8-0.9-4,1.6-5.9
			c1.9-1.5,4.5-2.4,6.5-2.7l-1.6-4.1C418.6,489.9,415.1,491.4,412.8,493.2 M428.2,480.1c-4.4,4.1-4.6,9.1-1.5,12.4
			c2.4,2.6,5.3,2.9,8.7,1.2l3.8-1.9c1.9-0.9,3.4-1.4,4.9,0.2c1.5,1.6,1.5,3.8-0.7,5.8c-2.1,2-4.9,2.9-6.8,3.3l2.3,3.9
			c1.9-0.5,4.9-1.8,7.6-4.3c4.3-4,4.1-9,1-12.3c-2.4-2.6-5.3-2.9-8.7-1.3l-3.7,1.8c-2.4,1.2-3.6,1.3-4.8,0.1c-1.6-1.7-1.3-3.9,1-6
			c1.8-1.7,4.2-2.8,6.2-3.4l-2-3.9C433.7,476.3,430.3,478.2,428.2,480.1 M138.4,497.1l3.4,3.5l12.2-12c2.5-1.3,5.7-1.7,7.9,0.5
			c2.5,2.5,2.1,5.4-1.1,8.5l-7.7,7.5c-2.7,2.7-2.8,4.9-0.5,7.3c1.2,1.3,2.7,2,3.9,2.2l2.6-2.9c-0.9-0.2-1.7-0.4-2.3-1
			c-0.9-0.9-0.7-1.7,0.5-2.9l7.4-7.3c4.7-4.6,5.6-9.2,1.6-13.2c-2.5-2.5-5.3-3.4-8.2-2.8l9.2-9l-3.4-3.5L138.4,497.1z M441.3,451.9
			c-3.3,4.1-2.4,7.9,1.9,11.3l2.2,1.8l-2.7,3.3l3.1,2.5l2.7-3.3l16.3,13.4l3.1-3.7l-16.4-13.4l4.7-5.7l-3.1-2.5l-4.7,5.8l-2.4-1.9
			c-2.1-1.7-2.4-3.4-0.9-5.2c1-1.2,2.6-1.6,3.6-1.8l-2.5-3.6C444.8,449,442.8,450.1,441.3,451.9 M454.1,451.5l17.8,12.3
			c3.1,2.2,5.4,1.8,7.3-0.9c1-1.5,1.4-3.1,1.4-4.3l-3.4-2c0,0.9-0.1,1.7-0.6,2.4c-0.7,0.9-1.5,1-3,0l-16.7-11.6L454.1,451.5z
			 M127.6,445.5c0.8,0.2,1.6,0.7,2.1,1.3c0.8,1.1,0.3,2.1-1.3,3.1l-7.6,5.2c-5.2,3.6-7.1,7.7-5.1,12.1l0.2,0.4
			c0.3,0.5,0.6,1,0.9,1.6c2.2,3.2,5,4.7,9.2,3.8c-2.5,3.6-2.1,6.5,0.2,9.8c3.6,5.2,9.7,5.6,16.4,1c5-3.4,8.9-7.8,10.5-9.7l-2.8-4.1
			c-1.8,2.1-5.7,6.3-10.5,9.6c-4,2.8-8,3.1-10.1,0.1c-1.9-2.7-0.6-5.9,3-8.4l12.6-8.7l-2.6-3.8l-12.4,8.6c-3.9,2.7-7.3,2.4-9.2-0.3
			c-1.9-2.8-0.8-5.6,3.1-8.3l7.9-5.4c2.9-2,4.4-4.4,2.4-7.3c-1-1.5-2.4-2.5-3.6-3.2L127.6,445.5z M446.9,443.4
			c-1.1,1.5-1.1,3,0.6,4.1c1.7,1.2,3.1,0.7,4.1-0.9c1-1.4,1-2.9-0.7-4.1c-0.7-0.5-1.2-0.7-1.8-0.7
			C448.2,442,447.5,442.5,446.9,443.4 M466.6,430.5c-1.7,3.1-1.8,6.1-0.3,8.7l-3-1.7l-2.3,4.2l23.2,12.8l2.4-4.3l-15-8.3
			c-2-2-3.3-5-1.8-7.7c1.7-3.1,4.6-3.5,8.4-1.4l9.4,5.2c3.3,1.8,5.5,1.2,7.1-1.7c0.8-1.5,1.1-3.1,1-4.4l-3.6-1.6
			c0.1,0.9,0.1,1.7-0.3,2.5c-0.6,1.1-1.4,1.2-3,0.3l-9.1-5c-2.4-1.3-4.6-2-6.5-2C470.4,426.3,468.2,427.6,466.6,430.5 M487.2,419.8
			c-5.5-2.1-7.8-5.9-6.3-10.1c0.9-2.3,2.9-3.7,4.7-4.2l12.1,4.6c1,1.6,1.5,4.1,0.7,6.3c-1.1,2.8-3.4,4.3-6.6,4.3
			C490.5,420.7,488.9,420.4,487.2,419.8 M470.5,399.7l11.2,4.3c-2.2,0.9-4.2,2.8-5.3,5.6c-2.3,6,0.9,11.7,9,14.8
			c8.2,3.1,14.4,0.9,16.7-5.1c1.2-3.1,0.8-5.9-0.6-8.2c2.4,0.3,4-0.7,4.8-2.9c0.6-1.5,0.7-3.4,0.4-4.7l-3.8-1.1
			c0.3,0.9,0.4,1.7,0.1,2.5c-0.5,1.4-1.7,1.3-3.4,0.7l-27.5-10.4L470.5,399.7z M483.9,384.9c-1.2,5.9,1.5,10.1,6,11
			c3.5,0.7,6-0.7,7.8-4.1l2-3.8c1-1.9,2-3.1,4.1-2.7c2.1,0.4,3.4,2.2,2.8,5.1c-0.6,2.8-2.4,5.2-3.7,6.6l4.1,1.9
			c1.2-1.5,3-4.3,3.7-7.9c1.2-5.8-1.9-9.7-6.3-10.6c-3.5-0.7-6.1,0.7-7.8,4l-2,3.6c-1.2,2.4-2.2,3.1-3.8,2.8
			c-2.3-0.5-3.3-2.4-2.7-5.5c0.5-2.4,1.8-4.7,3.1-6.3l-3.9-2C486.1,378.6,484.5,382.1,483.9,384.9 M487.2,348.8l21.1,6.8l-21.2,7.2
			l0,5.4l26.1-10.3l1.8,0.6c3,1,4.5,2.2,4.5,4.7c0,1.6-0.5,2.9-1.1,4l3.8,0.8c0.8-1.2,1.5-3,1.5-5.1c0-4.8-2.9-6.9-7.7-8.6
			l-28.8-10.3L487.2,348.8z M489.5,331.2c-0.6-4.3,2.4-7.5,8.5-8.3c5.9-0.8,9.6,1.6,10.2,5.9c0.6,4.3-2.4,7.5-8.3,8.3
			c-0.8,0.1-1.5,0.2-2.2,0.2C492.9,337.2,490,334.9,489.5,331.2 M497.3,318.1c-8.7,1.1-13.3,6.6-12.4,13.7c0.9,7.1,6.8,11.2,15.5,10
			c8.6-1.1,13.2-6.6,12.2-13.7c-0.8-6.4-5.5-10.3-12.6-10.3C499.2,317.9,498.3,317.9,497.3,318.1 M498.1,287c0.7,0.6,1.3,1.2,1.5,2
			c0.3,1.2-0.2,1.9-1.9,2.3l-19.7,5.2l1.2,4.7l17.4-4.6c2.7,0.3,5.1,1.6,5.9,4.7c1,3.7-1,5.6-4.9,6.6l-15.5,4.1l1.2,4.7l16.1-4.3
			c6.4-1.7,9.4-5.2,7.9-10.8c-0.9-3.3-2.7-5.6-5.4-6.6c2.2-1.1,2.9-2.9,2.2-5.4c-0.5-1.8-1.4-3.1-2.4-3.9L498.1,287z M247,193.2
			l11.3,24.3l22.2-10.3L330.7,315l-22.2,10.3l11.3,24.3l72.6-33.8l-11.3-24.3L359,301.9l-61.6-132.2L247,193.2z M315.6,161.8
			l11.4,24.6l23.3-10.8l62.3,133.9c7.3,18.1,15,32.9,14.9,53.7c0,8.6-1.2,17.9-4.3,25.8c-12,30.5-37.7,56.9-74.8,74.1
			c-70.6,32.8-141.1,13.4-171.8-49.7c-11.1-22.7-12.6-33.8-11.9-52.2c0.5-13.5,5.5-21.4,5.5-21.4s6,2,10.9-0.2
			c9.1-4,14.5-14.1,10.1-23.5c-4.3-9.2-13.8-13.4-23.9-8.7c-8.1,3.8-13.1,12-15.8,18.1c-11.4,25.7-13.2,57.5,7.1,98.5
			c35.9,72.3,117.6,96.5,199.3,58.5c46.1-21.4,78.9-56.1,90-97.2c1-3.7,1.9-7.5,2.5-11.2c1.4-8.3,2.3-16.7,1.9-25.1
			c-1.1-20.7-6.3-37.7-14.8-56.4l-0.1-0.3l-71.6-154L315.6,161.8z M265.7,136.3c-7.4,3.5-10.6,12-7.1,19.5
			c3.5,7.6,12.1,10.8,19.6,7.3c7.6-3.5,10.6-11.9,7.1-19.5c-2.6-5.4-7.9-8.7-13.5-8.7C269.7,134.9,267.6,135.4,265.7,136.3
			 M188.9,138c-18.6,8.7-43.6,30.8-20.8,79.7l4.7,10.1l-23.9,11.1l11.3,24.3l23.9-11.2l50.3,107.9L212,370.4l11.3,24.3l72.8-33.9
			l-11.3-24.3l-22.4,10.4L212.1,239l29.7-13.9l-11.3-24.3l-29.7,13.9l-4.7-10.1c-11.1-23.7-9.9-38.3,2.7-44.2
			c6.3-2.9,11.3-2,14.4-0.6c0.2,1.7,1.9,6.7,6.5,9.3c6.9,3.6,16.7,0.9,19.9-7.9c3.2-8.3-0.5-18.2-9.4-23.4
			c-3.9-3.2-10.4-5.3-18.3-5.3C205,132.6,197.1,134.1,188.9,138 M381.4,130.5l11.3,24.3l22.2-10.3l50.3,107.9L443,262.7l11.3,24.3
			l72.6-33.8l-11.3-24.3l-22.2,10.3L431.8,107L381.4,130.5z M332.4,105.2c-7.4,3.5-10.6,12-7.1,19.5c3.5,7.6,12.2,10.8,19.6,7.3
			c7.6-3.5,10.6-11.9,7.1-19.5c-2.5-5.5-7.9-8.7-13.5-8.7C336.5,103.8,334.4,104.2,332.4,105.2 M400.1,73.6
			c-7.4,3.5-10.6,12-7.1,19.5c3.5,7.6,12.2,10.8,19.6,7.3c7.6-3.5,10.6-11.9,7.1-19.5c-2.5-5.5-7.9-8.7-13.5-8.7
			C404.1,72.3,402.1,72.7,400.1,73.6"/>
	</defs>
	<clipPath id="SVGID_2_">
		<use xlink:href="#SVGID_1_"  style="overflow:visible;"/>
	</clipPath>
	
		<linearGradient id="SVGID_3_" gradientUnits="userSpaceOnUse" x1="19.2134" y1="755.7867" x2="29.2664" y2="755.7867" gradientTransform="matrix(18.954 40.6469 40.6469 -18.954 -30859.4063 13662.3779)">
		<stop  offset="0" style="stop-color:#4f5461"/>
		<stop  offset="0.2255" style="stop-color:#4f5461"/>
		<stop  offset="0.476" style="stop-color:#4f5461"/>
		<stop  offset="0.738" style="stop-color:#4f5461"/>
		<stop  offset="1" style="stop-color:#4f5461"/>
	</linearGradient>
	<polygon class="st0" points="453.1,-85.9 718.4,483 187.6,730.5 -77.7,161.6 	"/>
</g>
</svg>
